<?xml version="1.0" encoding="UTF-8" standalone="no"?>
<!DOCTYPE svg PUBLIC "-//W3C//DTD SVG 1.1//EN"
 "http://www.w3.org/Graphics/SVG/1.1/DTD/svg11.dtd">
<!-- Generated by graphviz version 2.40.1 (20161225.0304)
 -->
<!-- Title: %3 Pages: 1 -->
<svg width="956pt" height="199pt"
 viewBox="0.00 0.00 956.25 198.84" xmlns="http://www.w3.org/2000/svg" xmlns:xlink="http://www.w3.org/1999/xlink">
<g id="graph0" class="graph" transform="scale(1 1) rotate(0) translate(4 194.8406)">
<title>%3</title>
<polygon fill="#ffffff" stroke="transparent" points="-4,4 -4,-194.8406 952.2483,-194.8406 952.2483,4 -4,4"/>
<!-- A -->
<g id="node1" class="node">
<title>A</title>
<polygon fill="#d3d3d3" stroke="#000000" points="22.7549,-190.8406 -.2554,-190.8406 -.2554,-173.8406 22.7549,-173.8406 22.7549,-190.8406"/>
<text text-anchor="middle" x="11.2498" y="-179.6406" font-family="Times,serif" font-size="9.00" fill="#000000">A</text>
</g>
<!-- 7 -->
<g id="node26" class="node">
<title>7</title>
<ellipse fill="#ffffff" stroke="#000000" cx="451.2498" cy="-123.345" rx="14.4914" ry="14.4914"/>
<text text-anchor="middle" x="451.2498" y="-120.645" font-family="Times,serif" font-size="9.00" fill="#000000">7</text>
</g>
<!-- A&#45;&gt;7 -->
<g id="edge1" class="edge">
<title>A&#45;&gt;7</title>
<path fill="none" stroke="#00ff00" stroke-width=".2543" d="M22.8994,-176.7397C25.5912,-175.6293 28.4794,-174.5799 31.2498,-173.8406 177.4807,-134.8207 360.4475,-125.9004 426.2464,-123.9052"/>
<polygon fill="#00ff00" stroke="#00ff00" stroke-width=".2543" points="426.56,-127.398 436.4598,-123.624 426.3673,-120.4007 426.56,-127.398"/>
</g>
<!-- B -->
<g id="node2" class="node">
<title>B</title>
<polygon fill="#d3d3d3" stroke="#000000" points="62.2527,-190.8406 40.2468,-190.8406 40.2468,-173.8406 62.2527,-173.8406 62.2527,-190.8406"/>
<text text-anchor="middle" x="51.2498" y="-179.6406" font-family="Times,serif" font-size="9.00" fill="#000000">B</text>
</g>
<!-- B&#45;&gt;7 -->
<g id="edge2" class="edge">
<title>B&#45;&gt;7</title>
<path fill="none" stroke="#00ff00" stroke-width=".5627" d="M62.483,-176.9412C65.2936,-175.7656 68.3385,-174.6369 71.2498,-173.8406 201.7846,-138.1367 364.7025,-127.2936 426.2005,-124.3435"/>
<polygon fill="#00ff00" stroke="#00ff00" stroke-width=".5627" points="426.6405,-127.8273 436.4726,-123.8803 426.3251,-120.8344 426.6405,-127.8273"/>
</g>
<!-- &#45;3 -->
<g id="node3" class="node">
<title>&#45;3</title>
<polygon fill="#d3d3d3" stroke="#000000" points="104.2522,-190.8406 80.2473,-190.8406 80.2473,-173.8406 104.2522,-173.8406 104.2522,-190.8406"/>
<text text-anchor="middle" x="92.2498" y="-179.6406" font-family="Times,serif" font-size="9.00" fill="#000000">&#45;3</text>
</g>
<!-- &#45;3&#45;&gt;7 -->
<g id="edge3" class="edge">
<title>&#45;3&#45;&gt;7</title>
<path fill="none" stroke="#00ff00" stroke-width=".3464" d="M104.3417,-176.6222C106.9095,-175.5729 109.6353,-174.5779 112.2498,-173.8406 227.1473,-141.4387 370.1608,-128.81 426.6549,-124.8626"/>
<polygon fill="#00ff00" stroke="#00ff00" stroke-width=".3464" points="427.0223,-128.3459 436.7662,-124.1856 426.5546,-121.3616 427.0223,-128.3459"/>
</g>
<!-- &#45;4 -->
<g id="node4" class="node">
<title>&#45;4</title>
<polygon fill="#d3d3d3" stroke="#000000" points="145.2522,-190.8406 121.2473,-190.8406 121.2473,-173.8406 145.2522,-173.8406 145.2522,-190.8406"/>
<text text-anchor="middle" x="133.2498" y="-179.6406" font-family="Times,serif" font-size="9.00" fill="#000000">&#45;4</text>
</g>
<!-- &#45;4&#45;&gt;7 -->
<g id="edge4" class="edge">
<title>&#45;4&#45;&gt;7</title>
<path fill="none" stroke="#00ff00" stroke-width=".233" d="M145.3533,-176.6626C147.9202,-175.6104 150.6428,-174.604 153.2498,-173.8406 252.2434,-144.8527 374.9181,-130.6091 426.5357,-125.5584"/>
<polygon fill="#00ff00" stroke="#00ff00" stroke-width=".233" points="427.0882,-129.0218 436.7129,-124.593 426.427,-122.0531 427.0882,-129.0218"/>
</g>
<!-- &#45;5 -->
<g id="node5" class="node">
<title>&#45;5</title>
<polygon fill="#d3d3d3" stroke="#000000" points="186.2522,-190.8406 162.2473,-190.8406 162.2473,-173.8406 186.2522,-173.8406 186.2522,-190.8406"/>
<text text-anchor="middle" x="174.2498" y="-179.6406" font-family="Times,serif" font-size="9.00" fill="#000000">&#45;5</text>
</g>
<!-- &#45;5&#45;&gt;7 -->
<g id="edge5" class="edge">
<title>&#45;5&#45;&gt;7</title>
<path fill="none" stroke="#00ff00" stroke-width=".1783" d="M186.3691,-176.7154C188.9349,-175.6593 191.653,-174.638 194.2498,-173.8406 277.7513,-148.1989 380.6481,-132.6064 426.8138,-126.4199"/>
<polygon fill="#00ff00" stroke="#00ff00" stroke-width=".1783" points="427.3236,-129.8831 436.7839,-125.1131 426.4138,-122.9425 427.3236,-129.8831"/>
</g>
<!-- &#45;6 -->
<g id="node6" class="node">
<title>&#45;6</title>
<polygon fill="#d3d3d3" stroke="#000000" points="227.2522,-190.8406 203.2473,-190.8406 203.2473,-173.8406 227.2522,-173.8406 227.2522,-190.8406"/>
<text text-anchor="middle" x="215.2498" y="-179.6406" font-family="Times,serif" font-size="9.00" fill="#000000">&#45;6</text>
</g>
<!-- &#45;6&#45;&gt;7 -->
<g id="edge6" class="edge">
<title>&#45;6&#45;&gt;7</title>
<path fill="none" stroke="#ff0000" stroke-width=".3681" d="M227.3918,-176.7869C229.9559,-175.7256 232.6676,-174.6842 235.2498,-173.8406 303.3211,-151.6023 386.4673,-135.0282 426.8729,-127.623"/>
<polygon fill="#ff0000" stroke="#ff0000" stroke-width=".3681" points="427.6447,-131.0403 436.8642,-125.8201 426.4016,-124.1516 427.6447,-131.0403"/>
</g>
<!-- &#45;7 -->
<g id="node7" class="node">
<title>&#45;7</title>
<polygon fill="#d3d3d3" stroke="#000000" points="268.2522,-190.8406 244.2473,-190.8406 244.2473,-173.8406 268.2522,-173.8406 268.2522,-190.8406"/>
<text text-anchor="middle" x="256.2498" y="-179.6406" font-family="Times,serif" font-size="9.00" fill="#000000">&#45;7</text>
</g>
<!-- &#45;7&#45;&gt;7 -->
<g id="edge7" class="edge">
<title>&#45;7&#45;&gt;7</title>
<path fill="none" stroke="#00ff00" stroke-width=".1655" d="M268.001,-177.0671C270.6876,-175.9398 273.5479,-174.8006 276.2498,-173.8406 329.2166,-155.0212 393.0041,-137.9902 427.0461,-129.338"/>
<polygon fill="#00ff00" stroke="#00ff00" stroke-width=".1655" points="428.1591,-132.6671 437.002,-126.8316 426.4501,-125.8789 428.1591,-132.6671"/>
</g>
<!-- &#45;8 -->
<g id="node8" class="node">
<title>&#45;8</title>
<polygon fill="#d3d3d3" stroke="#000000" points="309.2522,-190.8406 285.2473,-190.8406 285.2473,-173.8406 309.2522,-173.8406 309.2522,-190.8406"/>
<text text-anchor="middle" x="297.2498" y="-179.6406" font-family="Times,serif" font-size="9.00" fill="#000000">&#45;8</text>
</g>
<!-- &#45;8&#45;&gt;7 -->
<g id="edge8" class="edge">
<title>&#45;8&#45;&gt;7</title>
<path fill="none" stroke="#00ff00" stroke-width=".3015" d="M309.0607,-177.2251C311.7442,-176.0896 314.5882,-174.9072 317.2498,-173.8406 355.7541,-158.4113 400.9897,-141.6442 427.8256,-131.8374"/>
<polygon fill="#00ff00" stroke="#00ff00" stroke-width=".3015" points="429.2835,-135.0314 437.481,-128.3194 426.8871,-128.4543 429.2835,-135.0314"/>
</g>
<!-- &#45;9 -->
<g id="node9" class="node">
<title>&#45;9</title>
<polygon fill="#d3d3d3" stroke="#000000" points="350.2522,-190.8406 326.2473,-190.8406 326.2473,-173.8406 350.2522,-173.8406 350.2522,-190.8406"/>
<text text-anchor="middle" x="338.2498" y="-179.6406" font-family="Times,serif" font-size="9.00" fill="#000000">&#45;9</text>
</g>
<!-- &#45;9&#45;&gt;7 -->
<g id="edge9" class="edge">
<title>&#45;9&#45;&gt;7</title>
<path fill="none" stroke="#00ff00" stroke-width=".1371" d="M350.3427,-176.0271C369.1581,-166.2038 405.7229,-147.1139 429.2859,-134.812"/>
<polygon fill="#00ff00" stroke="#00ff00" stroke-width=".1371" points="430.9597,-137.8865 438.2045,-130.1557 427.72,-131.6812 430.9597,-137.8865"/>
</g>
<!-- &#45;10 -->
<g id="node10" class="node">
<title>&#45;10</title>
<polygon fill="#d3d3d3" stroke="#000000" points="396.2468,-190.8406 368.2527,-190.8406 368.2527,-173.8406 396.2468,-173.8406 396.2468,-190.8406"/>
<text text-anchor="middle" x="382.2498" y="-179.6406" font-family="Times,serif" font-size="9.00" fill="#000000">&#45;10</text>
</g>
<!-- &#45;10&#45;&gt;7 -->
<g id="edge10" class="edge">
<title>&#45;10&#45;&gt;7</title>
<path fill="none" stroke="#00ff00" stroke-width=".2048" d="M392.4309,-173.6356C402.8864,-164.6961 419.4048,-150.5727 432.2781,-139.5659"/>
<polygon fill="#00ff00" stroke="#00ff00" stroke-width=".2048" points="434.7849,-142.0275 440.111,-132.8687 430.2359,-136.7071 434.7849,-142.0275"/>
</g>
<!-- &#45;11 -->
<g id="node11" class="node">
<title>&#45;11</title>
<polygon fill="#d3d3d3" stroke="#000000" points="441.9192,-190.8406 414.5803,-190.8406 414.5803,-173.8406 441.9192,-173.8406 441.9192,-190.8406"/>
<text text-anchor="middle" x="428.2498" y="-179.6406" font-family="Times,serif" font-size="9.00" fill="#000000">&#45;11</text>
</g>
<!-- &#45;11&#45;&gt;7 -->
<g id="edge11" class="edge">
<title>&#45;11&#45;&gt;7</title>
<path fill="none" stroke="#ff0000" stroke-width=".2507" d="M431.6435,-173.6356C434.4257,-166.499 438.496,-156.0587 442.2079,-146.5377"/>
<polygon fill="#ff0000" stroke="#ff0000" stroke-width=".2507" points="445.5058,-147.7139 445.8772,-137.1256 438.9839,-145.1713 445.5058,-147.7139"/>
</g>
<!-- &#45;12 -->
<g id="node12" class="node">
<title>&#45;12</title>
<polygon fill="#d3d3d3" stroke="#000000" points="488.2468,-190.8406 460.2527,-190.8406 460.2527,-173.8406 488.2468,-173.8406 488.2468,-190.8406"/>
<text text-anchor="middle" x="474.2498" y="-179.6406" font-family="Times,serif" font-size="9.00" fill="#000000">&#45;12</text>
</g>
<!-- &#45;12&#45;&gt;7 -->
<g id="edge12" class="edge">
<title>&#45;12&#45;&gt;7</title>
<path fill="none" stroke="#ff0000" stroke-width=".3791" d="M470.856,-173.6356C468.0738,-166.499 464.0035,-156.0587 460.2917,-146.5377"/>
<polygon fill="#ff0000" stroke="#ff0000" stroke-width=".3791" points="463.5156,-145.1713 456.6223,-137.1256 456.9937,-147.7139 463.5156,-145.1713"/>
</g>
<!-- &#45;13 -->
<g id="node13" class="node">
<title>&#45;13</title>
<polygon fill="#d3d3d3" stroke="#000000" points="534.2468,-190.8406 506.2527,-190.8406 506.2527,-173.8406 534.2468,-173.8406 534.2468,-190.8406"/>
<text text-anchor="middle" x="520.2498" y="-179.6406" font-family="Times,serif" font-size="9.00" fill="#000000">&#45;13</text>
</g>
<!-- &#45;13&#45;&gt;7 -->
<g id="edge13" class="edge">
<title>&#45;13&#45;&gt;7</title>
<path fill="none" stroke="#ff0000" stroke-width=".139" d="M510.0686,-173.6356C499.6131,-164.6961 483.0947,-150.5727 470.2214,-139.5659"/>
<polygon fill="#ff0000" stroke="#ff0000" stroke-width=".139" points="472.2636,-136.7071 462.3885,-132.8687 467.7146,-142.0275 472.2636,-136.7071"/>
</g>
<!-- &#45;14 -->
<g id="node14" class="node">
<title>&#45;14</title>
<polygon fill="#d3d3d3" stroke="#000000" points="580.2468,-190.8406 552.2527,-190.8406 552.2527,-173.8406 580.2468,-173.8406 580.2468,-190.8406"/>
<text text-anchor="middle" x="566.2498" y="-179.6406" font-family="Times,serif" font-size="9.00" fill="#000000">&#45;14</text>
</g>
<!-- &#45;14&#45;&gt;7 -->
<g id="edge14" class="edge">
<title>&#45;14&#45;&gt;7</title>
<path fill="none" stroke="#ff0000" stroke-width=".2198" d="M552.1485,-175.1066C532.521,-165.0376 496.764,-146.694 473.5145,-134.7669"/>
<polygon fill="#ff0000" stroke="#ff0000" stroke-width=".2198" points="474.8948,-131.5413 464.3997,-130.0909 471.6996,-137.7696 474.8948,-131.5413"/>
</g>
<!-- &#45;15 -->
<g id="node15" class="node">
<title>&#45;15</title>
<polygon fill="#d3d3d3" stroke="#000000" points="626.2468,-190.8406 598.2527,-190.8406 598.2527,-173.8406 626.2468,-173.8406 626.2468,-190.8406"/>
<text text-anchor="middle" x="612.2498" y="-179.6406" font-family="Times,serif" font-size="9.00" fill="#000000">&#45;15</text>
</g>
<!-- &#45;15&#45;&gt;7 -->
<g id="edge15" class="edge">
<title>&#45;15&#45;&gt;7</title>
<path fill="none" stroke="#ff0000" stroke-width=".1069" d="M598.1427,-177.119C595.2044,-176.0337 592.1265,-174.8985 589.2498,-173.8406 548.9094,-159.006 501.8967,-141.8268 474.4657,-131.8141"/>
<polygon fill="#ff0000" stroke="#ff0000" stroke-width=".1069" points="475.56,-128.4877 464.9661,-128.3473 473.1602,-135.0635 475.56,-128.4877"/>
</g>
<!-- &#45;16 -->
<g id="node16" class="node">
<title>&#45;16</title>
<polygon fill="#d3d3d3" stroke="#000000" points="672.2468,-190.8406 644.2527,-190.8406 644.2527,-173.8406 672.2468,-173.8406 672.2468,-190.8406"/>
<text text-anchor="middle" x="658.2498" y="-179.6406" font-family="Times,serif" font-size="9.00" fill="#000000">&#45;16</text>
</g>
<!-- &#45;16&#45;&gt;7 -->
<g id="edge16" class="edge">
<title>&#45;16&#45;&gt;7</title>
<path fill="none" stroke="#00ff00" stroke-width=".604" d="M644.2069,-176.9328C641.2638,-175.8609 638.1678,-174.7783 635.2498,-173.8406 578.6601,-155.6561 511.0018,-138.1551 475.594,-129.3135"/>
<polygon fill="#00ff00" stroke="#00ff00" stroke-width=".604" points="476.2373,-125.8671 465.6887,-126.8564 474.5519,-132.6612 476.2373,-125.8671"/>
</g>
<!-- &#45;17 -->
<g id="node17" class="node">
<title>&#45;17</title>
<polygon fill="#d3d3d3" stroke="#000000" points="718.2468,-190.8406 690.2527,-190.8406 690.2527,-173.8406 718.2468,-173.8406 718.2468,-190.8406"/>
<text text-anchor="middle" x="704.2498" y="-179.6406" font-family="Times,serif" font-size="9.00" fill="#000000">&#45;17</text>
</g>
<!-- &#45;17&#45;&gt;7 -->
<g id="edge17" class="edge">
<title>&#45;17&#45;&gt;7</title>
<path fill="none" stroke="#ff0000" stroke-width=".6028" d="M690.2429,-176.8153C687.2973,-175.752 684.1911,-174.7026 681.2498,-173.8406 607.4453,-152.2131 517.9084,-135.1034 475.6171,-127.5508"/>
<polygon fill="#ff0000" stroke="#ff0000" stroke-width=".6028" points="476.1445,-124.0899 465.6884,-125.7991 474.9282,-130.9834 476.1445,-124.0899"/>
</g>
<!-- &#45;18 -->
<g id="node18" class="node">
<title>&#45;18</title>
<polygon fill="#d3d3d3" stroke="#000000" points="764.2468,-190.8406 736.2527,-190.8406 736.2527,-173.8406 764.2468,-173.8406 764.2468,-190.8406"/>
<text text-anchor="middle" x="750.2498" y="-179.6406" font-family="Times,serif" font-size="9.00" fill="#000000">&#45;18</text>
</g>
<!-- &#45;18&#45;&gt;7 -->
<g id="edge18" class="edge">
<title>&#45;18&#45;&gt;7</title>
<path fill="none" stroke="#00ff00" stroke-width=".1243" d="M735.773,-176.5591C732.9731,-175.5641 730.0416,-174.6057 727.2498,-173.8406 636.1574,-148.8775 524.7211,-132.7612 476.0149,-126.411"/>
<polygon fill="#00ff00" stroke="#00ff00" stroke-width=".1243" points="476.1776,-122.9033 465.8142,-125.1052 475.2888,-129.8467 476.1776,-122.9033"/>
</g>
<!-- &#45;19 -->
<g id="node19" class="node">
<title>&#45;19</title>
<polygon fill="#d3d3d3" stroke="#000000" points="810.2468,-190.8406 782.2527,-190.8406 782.2527,-173.8406 810.2468,-173.8406 810.2468,-190.8406"/>
<text text-anchor="middle" x="796.2498" y="-179.6406" font-family="Times,serif" font-size="9.00" fill="#000000">&#45;19</text>
</g>
<!-- &#45;19&#45;&gt;7 -->
<g id="edge19" class="edge">
<title>&#45;19&#45;&gt;7</title>
<path fill="none" stroke="#ff0000" stroke-width=".28" d="M781.7884,-176.5016C778.987,-175.5119 776.0511,-174.5702 773.2498,-173.8406 664.386,-145.4888 530.4153,-130.7192 475.9853,-125.5347"/>
<polygon fill="#ff0000" stroke="#ff0000" stroke-width=".28" points="476.1833,-122.0381 465.9024,-124.5984 475.5359,-129.0082 476.1833,-122.0381"/>
</g>
<!-- &#45;20 -->
<g id="node20" class="node">
<title>&#45;20</title>
<polygon fill="#d3d3d3" stroke="#000000" points="856.2468,-190.8406 828.2527,-190.8406 828.2527,-173.8406 856.2468,-173.8406 856.2468,-190.8406"/>
<text text-anchor="middle" x="842.2498" y="-179.6406" font-family="Times,serif" font-size="9.00" fill="#000000">&#45;20</text>
</g>
<!-- &#45;20&#45;&gt;7 -->
<g id="edge20" class="edge">
<title>&#45;20&#45;&gt;7</title>
<path fill="none" stroke="#ff0000" stroke-width=".3361" d="M827.7995,-176.4581C824.9971,-175.4724 822.058,-174.5433 819.2498,-173.8406 692.5978,-142.1504 536.115,-129.0028 476.1929,-124.8891"/>
<polygon fill="#ff0000" stroke="#ff0000" stroke-width=".3361" points="476.0536,-121.3723 465.8442,-124.2037 475.591,-128.357 476.0536,-121.3723"/>
</g>
<!-- &#45;21 -->
<g id="node21" class="node">
<title>&#45;21</title>
<polygon fill="#d3d3d3" stroke="#000000" points="902.2468,-190.8406 874.2527,-190.8406 874.2527,-173.8406 902.2468,-173.8406 902.2468,-190.8406"/>
<text text-anchor="middle" x="888.2498" y="-179.6406" font-family="Times,serif" font-size="9.00" fill="#000000">&#45;21</text>
</g>
<!-- &#45;21&#45;&gt;7 -->
<g id="edge21" class="edge">
<title>&#45;21&#45;&gt;7</title>
<path fill="none" stroke="#00ff00" stroke-width=".3058" d="M873.8079,-176.424C871.0047,-175.4414 868.0631,-174.5222 865.2498,-173.8406 720.2285,-138.7073 540.4119,-127.4162 475.7956,-124.3486"/>
<polygon fill="#00ff00" stroke="#00ff00" stroke-width=".3058" points="475.9146,-120.8505 465.7669,-123.8958 475.5988,-127.8434 475.9146,-120.8505"/>
</g>
<!-- &#45;22 -->
<g id="node22" class="node">
<title>&#45;22</title>
<polygon fill="#d3d3d3" stroke="#000000" points="948.2468,-190.8406 920.2527,-190.8406 920.2527,-173.8406 948.2468,-173.8406 948.2468,-190.8406"/>
<text text-anchor="middle" x="934.2498" y="-179.6406" font-family="Times,serif" font-size="9.00" fill="#000000">&#45;22</text>
</g>
<!-- &#45;22&#45;&gt;7 -->
<g id="edge22" class="edge">
<title>&#45;22&#45;&gt;7</title>
<path fill="none" stroke="#ff0000" stroke-width=".2024" d="M919.8144,-176.3966C917.0107,-175.4166 914.0672,-174.5053 911.2498,-173.8406 748.2935,-135.399 545.812,-126.0818 476.146,-123.946"/>
<polygon fill="#ff0000" stroke="#ff0000" stroke-width=".2024" points="475.8707,-120.4369 465.7756,-123.6523 475.6725,-127.4341 475.8707,-120.4369"/>
</g>
<!-- A XOR B -->
<g id="node23" class="node">
<title>A XOR B</title>
<ellipse fill="#add8e6" stroke="#000000" cx="382.2498" cy="-36.4246" rx="36.3494" ry="36.3494"/>
<text text-anchor="middle" x="382.2498" y="-33.7246" font-family="Times,serif" font-size="9.00" fill="#000000">A XOR B</text>
</g>
<!-- 1 -->
<g id="node24" class="node">
<title>1</title>
<ellipse fill="#add8e6" stroke="#000000" cx="451.2498" cy="-36.4246" rx="14.4914" ry="14.4914"/>
<text text-anchor="middle" x="451.2498" y="-33.7246" font-family="Times,serif" font-size="9.00" fill="#000000">1</text>
</g>
<!-- 2 -->
<g id="node25" class="node">
<title>2</title>
<ellipse fill="#add8e6" stroke="#000000" cx="498.2498" cy="-36.4246" rx="14.4914" ry="14.4914"/>
<text text-anchor="middle" x="498.2498" y="-33.7246" font-family="Times,serif" font-size="9.00" fill="#000000">2</text>
</g>
<!-- 7&#45;&gt;A XOR B -->
<g id="edge23" class="edge">
<title>7&#45;&gt;A XOR B</title>
<path fill="none" stroke="#ff0000" stroke-width=".2159" d="M442.2292,-111.9816C434.3508,-102.057 422.467,-87.0869 411.3502,-73.0829"/>
<polygon fill="#ff0000" stroke="#ff0000" stroke-width=".2159" points="413.8883,-70.6508 404.9295,-64.9947 408.4057,-75.003 413.8883,-70.6508"/>
</g>
<!-- 7&#45;&gt;1 -->
<g id="edge24" class="edge">
<title>7&#45;&gt;1</title>
<path fill="none" stroke="#00ff00" stroke-width=".4102" d="M451.2498,-108.6001C451.2498,-95.6604 451.2498,-76.5735 451.2498,-61.2775"/>
<polygon fill="#00ff00" stroke="#00ff00" stroke-width=".4102" points="454.7499,-60.9517 451.2498,-50.9517 447.7499,-60.9518 454.7499,-60.9517"/>
</g>
<!-- 7&#45;&gt;2 -->
<g id="edge25" class="edge">
<title>7&#45;&gt;2</title>
<path fill="none" stroke="#00ff00" stroke-width=".5102" d="M458.1848,-110.5196C465.613,-96.782 477.5341,-74.7355 486.4446,-58.2568"/>
<polygon fill="#00ff00" stroke="#00ff00" stroke-width=".5102" points="489.6086,-59.7638 491.2863,-49.3026 483.4511,-56.4343 489.6086,-59.7638"/>
</g>
</g>
</svg>
