<?xml version="1.0" encoding="UTF-8" standalone="no"?>
<!DOCTYPE svg PUBLIC "-//W3C//DTD SVG 1.1//EN"
 "http://www.w3.org/Graphics/SVG/1.1/DTD/svg11.dtd">
<!-- Generated by graphviz version 2.40.1 (20161225.0304)
 -->
<!-- Title: %3 Pages: 1 -->
<svg width="956pt" height="205pt"
 viewBox="0.00 0.00 956.25 205.20" xmlns="http://www.w3.org/2000/svg" xmlns:xlink="http://www.w3.org/1999/xlink">
<g id="graph0" class="graph" transform="scale(1 1) rotate(0) translate(4 201.2046)">
<title>%3</title>
<polygon fill="#ffffff" stroke="transparent" points="-4,4 -4,-201.2046 952.2483,-201.2046 952.2483,4 -4,4"/>
<!-- A -->
<g id="node1" class="node">
<title>A</title>
<polygon fill="#d3d3d3" stroke="#000000" points="22.7549,-197.2046 -.2554,-197.2046 -.2554,-180.2046 22.7549,-180.2046 22.7549,-197.2046"/>
<text text-anchor="middle" x="11.2498" y="-186.0046" font-family="Times,serif" font-size="9.00" fill="#000000">A</text>
</g>
<!-- 54 -->
<g id="node26" class="node">
<title>54</title>
<ellipse fill="#ffffff" stroke="#000000" cx="451.2498" cy="-126.5269" rx="17.8571" ry="17.8571"/>
<text text-anchor="middle" x="451.2498" y="-123.8269" font-family="Times,serif" font-size="9.00" fill="#000000">54</text>
</g>
<!-- A&#45;&gt;54 -->
<g id="edge1" class="edge">
<title>A&#45;&gt;54</title>
<path fill="none" stroke="#00ff00" stroke-width=".2765" d="M22.9035,-183.119C25.5951,-182.0078 28.4821,-180.9542 31.2498,-180.2046 175.083,-141.2491 354.4805,-130.3301 422.9304,-127.4723"/>
<polygon fill="#00ff00" stroke="#00ff00" stroke-width=".2765" points="423.4499,-130.9548 433.3054,-127.0665 423.1763,-123.9601 423.4499,-130.9548"/>
</g>
<!-- B -->
<g id="node2" class="node">
<title>B</title>
<polygon fill="#d3d3d3" stroke="#000000" points="62.2527,-197.2046 40.2468,-197.2046 40.2468,-180.2046 62.2527,-180.2046 62.2527,-197.2046"/>
<text text-anchor="middle" x="51.2498" y="-186.0046" font-family="Times,serif" font-size="9.00" fill="#000000">B</text>
</g>
<!-- B&#45;&gt;54 -->
<g id="edge2" class="edge">
<title>B&#45;&gt;54</title>
<path fill="none" stroke="#ff0000" stroke-width=".4305" d="M62.4876,-183.3221C65.2981,-182.146 68.3418,-181.0129 71.2498,-180.2046 199.898,-144.4478 360.0018,-131.779 423.4721,-127.9629"/>
<polygon fill="#ff0000" stroke="#ff0000" stroke-width=".4305" points="423.71,-131.4551 433.4926,-127.3867 423.3081,-124.4666 423.71,-131.4551"/>
</g>
<!-- &#45;3 -->
<g id="node3" class="node">
<title>&#45;3</title>
<polygon fill="#d3d3d3" stroke="#000000" points="104.2522,-197.2046 80.2473,-197.2046 80.2473,-180.2046 104.2522,-180.2046 104.2522,-197.2046"/>
<text text-anchor="middle" x="92.2498" y="-186.0046" font-family="Times,serif" font-size="9.00" fill="#000000">&#45;3</text>
</g>
<!-- &#45;3&#45;&gt;54 -->
<g id="edge3" class="edge">
<title>&#45;3&#45;&gt;54</title>
<path fill="none" stroke="#00ff00" stroke-width=".3238" d="M104.347,-183.0047C106.9144,-181.954 109.6387,-180.9539 112.2498,-180.2046 224.9421,-147.866 364.6578,-133.529 423.2908,-128.625"/>
<polygon fill="#00ff00" stroke="#00ff00" stroke-width=".3238" points="423.5856,-132.1127 433.2705,-127.8169 423.0206,-125.1355 423.5856,-132.1127"/>
</g>
<!-- &#45;4 -->
<g id="node4" class="node">
<title>&#45;4</title>
<polygon fill="#d3d3d3" stroke="#000000" points="145.2522,-197.2046 121.2473,-197.2046 121.2473,-180.2046 145.2522,-180.2046 145.2522,-197.2046"/>
<text text-anchor="middle" x="133.2498" y="-186.0046" font-family="Times,serif" font-size="9.00" fill="#000000">&#45;4</text>
</g>
<!-- &#45;4&#45;&gt;54 -->
<g id="edge4" class="edge">
<title>&#45;4&#45;&gt;54</title>
<path fill="none" stroke="#ff0000" stroke-width=".2439" d="M145.3595,-183.0475C147.926,-181.9937 150.6468,-180.9815 153.2498,-180.2046 250.3299,-151.2301 370.131,-135.4595 423.4238,-129.4335"/>
<polygon fill="#ff0000" stroke="#ff0000" stroke-width=".2439" points="423.9066,-132.9016 433.4623,-128.3257 423.1386,-125.9438 423.9066,-132.9016"/>
</g>
<!-- &#45;5 -->
<g id="node5" class="node">
<title>&#45;5</title>
<polygon fill="#d3d3d3" stroke="#000000" points="186.2522,-197.2046 162.2473,-197.2046 162.2473,-180.2046 186.2522,-180.2046 186.2522,-197.2046"/>
<text text-anchor="middle" x="174.2498" y="-186.0046" font-family="Times,serif" font-size="9.00" fill="#000000">&#45;5</text>
</g>
<!-- &#45;5&#45;&gt;54 -->
<g id="edge5" class="edge">
<title>&#45;5&#45;&gt;54</title>
<path fill="none" stroke="#ff0000" stroke-width=".2997" d="M186.3765,-183.1032C188.9418,-182.0454 191.6578,-181.0174 194.2498,-180.2046 275.7555,-154.6444 375.6522,-137.7414 423.3365,-130.5181"/>
<polygon fill="#ff0000" stroke="#ff0000" stroke-width=".2997" points="424.1196,-133.9402 433.4958,-129.0068 423.0896,-127.0164 424.1196,-133.9402"/>
</g>
<!-- &#45;6 -->
<g id="node6" class="node">
<title>&#45;6</title>
<polygon fill="#d3d3d3" stroke="#000000" points="227.2522,-197.2046 203.2473,-197.2046 203.2473,-180.2046 227.2522,-180.2046 227.2522,-197.2046"/>
<text text-anchor="middle" x="215.2498" y="-186.0046" font-family="Times,serif" font-size="9.00" fill="#000000">&#45;6</text>
</g>
<!-- &#45;6&#45;&gt;54 -->
<g id="edge6" class="edge">
<title>&#45;6&#45;&gt;54</title>
<path fill="none" stroke="#00ff00" stroke-width=".3349" d="M227.401,-183.1787C229.9645,-182.1154 232.6736,-181.0661 235.2498,-180.2046 301.6609,-157.9958 382.2911,-140.3309 423.7278,-131.9061"/>
<polygon fill="#00ff00" stroke="#00ff00" stroke-width=".3349" points="424.5075,-135.3195 433.6227,-129.9192 423.1293,-128.4565 424.5075,-135.3195"/>
</g>
<!-- &#45;7 -->
<g id="node7" class="node">
<title>&#45;7</title>
<polygon fill="#d3d3d3" stroke="#000000" points="268.2522,-197.2046 244.2473,-197.2046 244.2473,-180.2046 268.2522,-180.2046 268.2522,-197.2046"/>
<text text-anchor="middle" x="256.2498" y="-186.0046" font-family="Times,serif" font-size="9.00" fill="#000000">&#45;7</text>
</g>
<!-- &#45;7&#45;&gt;54 -->
<g id="edge7" class="edge">
<title>&#45;7&#45;&gt;54</title>
<path fill="none" stroke="#ff0000" stroke-width=".198" d="M268.013,-183.4645C270.699,-182.3354 273.556,-181.1871 276.2498,-180.2046 327.9271,-161.3558 389.7271,-143.456 424.3354,-133.8391"/>
<polygon fill="#ff0000" stroke="#ff0000" stroke-width=".198" points="425.4523,-137.1618 434.1616,-131.1286 423.5909,-130.4138 425.4523,-137.1618"/>
</g>
<!-- &#45;8 -->
<g id="node8" class="node">
<title>&#45;8</title>
<polygon fill="#d3d3d3" stroke="#000000" points="309.2522,-197.2046 285.2473,-197.2046 285.2473,-180.2046 309.2522,-180.2046 309.2522,-197.2046"/>
<text text-anchor="middle" x="297.2498" y="-186.0046" font-family="Times,serif" font-size="9.00" fill="#000000">&#45;8</text>
</g>
<!-- &#45;8&#45;&gt;54 -->
<g id="edge8" class="edge">
<title>&#45;8&#45;&gt;54</title>
<path fill="none" stroke="#ff0000" stroke-width=".2697" d="M309.0773,-183.6297C311.7599,-182.4921 314.5993,-181.2985 317.2498,-180.2046 354.6347,-164.7744 398.137,-147.4668 425.1869,-136.7809"/>
<polygon fill="#ff0000" stroke="#ff0000" stroke-width=".2697" points="426.6836,-139.953 434.7014,-133.0274 424.1147,-133.4414 426.6836,-139.953"/>
</g>
<!-- &#45;9 -->
<g id="node9" class="node">
<title>&#45;9</title>
<polygon fill="#d3d3d3" stroke="#000000" points="350.2522,-197.2046 326.2473,-197.2046 326.2473,-180.2046 350.2522,-180.2046 350.2522,-197.2046"/>
<text text-anchor="middle" x="338.2498" y="-186.0046" font-family="Times,serif" font-size="9.00" fill="#000000">&#45;9</text>
</g>
<!-- &#45;9&#45;&gt;54 -->
<g id="edge9" class="edge">
<title>&#45;9&#45;&gt;54</title>
<path fill="none" stroke="#ff0000" stroke-width=".3111" d="M350.3427,-182.0505C368.4575,-172.0829 403.0246,-153.0626 426.6014,-140.0896"/>
<polygon fill="#ff0000" stroke="#ff0000" stroke-width=".3111" points="428.5749,-142.9986 435.6488,-135.1113 425.2002,-136.8657 428.5749,-142.9986"/>
</g>
<!-- &#45;10 -->
<g id="node10" class="node">
<title>&#45;10</title>
<polygon fill="#d3d3d3" stroke="#000000" points="396.2468,-197.2046 368.2527,-197.2046 368.2527,-180.2046 396.2468,-180.2046 396.2468,-197.2046"/>
<text text-anchor="middle" x="382.2498" y="-186.0046" font-family="Times,serif" font-size="9.00" fill="#000000">&#45;10</text>
</g>
<!-- &#45;10&#45;&gt;54 -->
<g id="edge10" class="edge">
<title>&#45;10&#45;&gt;54</title>
<path fill="none" stroke="#ff0000" stroke-width=".1868" d="M391.8439,-180.0591C401.7795,-171.1059 417.616,-156.8351 430.4402,-145.279"/>
<polygon fill="#ff0000" stroke="#ff0000" stroke-width=".1868" points="432.8703,-147.8006 437.9561,-138.5062 428.1843,-142.6004 432.8703,-147.8006"/>
</g>
<!-- &#45;11 -->
<g id="node11" class="node">
<title>&#45;11</title>
<polygon fill="#d3d3d3" stroke="#000000" points="441.9192,-197.2046 414.5803,-197.2046 414.5803,-180.2046 441.9192,-180.2046 441.9192,-197.2046"/>
<text text-anchor="middle" x="428.2498" y="-186.0046" font-family="Times,serif" font-size="9.00" fill="#000000">&#45;11</text>
</g>
<!-- &#45;11&#45;&gt;54 -->
<g id="edge11" class="edge">
<title>&#45;11&#45;&gt;54</title>
<path fill="none" stroke="#00ff00" stroke-width=".1212" d="M431.4478,-180.0591C434.0769,-172.9516 437.9456,-162.493 441.5676,-152.7016"/>
<polygon fill="#00ff00" stroke="#00ff00" stroke-width=".1212" points="444.8654,-153.8746 445.0521,-143.2814 438.3001,-151.446 444.8654,-153.8746"/>
</g>
<!-- &#45;12 -->
<g id="node12" class="node">
<title>&#45;12</title>
<polygon fill="#d3d3d3" stroke="#000000" points="488.2468,-197.2046 460.2527,-197.2046 460.2527,-180.2046 488.2468,-180.2046 488.2468,-197.2046"/>
<text text-anchor="middle" x="474.2498" y="-186.0046" font-family="Times,serif" font-size="9.00" fill="#000000">&#45;12</text>
</g>
<!-- &#45;12&#45;&gt;54 -->
<g id="edge12" class="edge">
<title>&#45;12&#45;&gt;54</title>
<path fill="none" stroke="#ff0000" stroke-width=".2694" d="M471.0517,-180.0591C468.4226,-172.9516 464.5539,-162.493 460.932,-152.7016"/>
<polygon fill="#ff0000" stroke="#ff0000" stroke-width=".2694" points="464.1994,-151.446 457.4474,-143.2814 457.6341,-153.8746 464.1994,-151.446"/>
</g>
<!-- &#45;13 -->
<g id="node13" class="node">
<title>&#45;13</title>
<polygon fill="#d3d3d3" stroke="#000000" points="534.2468,-197.2046 506.2527,-197.2046 506.2527,-180.2046 534.2468,-180.2046 534.2468,-197.2046"/>
<text text-anchor="middle" x="520.2498" y="-186.0046" font-family="Times,serif" font-size="9.00" fill="#000000">&#45;13</text>
</g>
<!-- &#45;13&#45;&gt;54 -->
<g id="edge13" class="edge">
<title>&#45;13&#45;&gt;54</title>
<path fill="none" stroke="#00ff00" stroke-width=".1823" d="M510.6556,-180.0591C500.72,-171.1059 484.8835,-156.8351 472.0593,-145.279"/>
<polygon fill="#00ff00" stroke="#00ff00" stroke-width=".1823" points="474.3152,-142.6004 464.5434,-138.5062 469.6292,-147.8006 474.3152,-142.6004"/>
</g>
<!-- &#45;14 -->
<g id="node14" class="node">
<title>&#45;14</title>
<polygon fill="#d3d3d3" stroke="#000000" points="580.2468,-197.2046 552.2527,-197.2046 552.2527,-180.2046 580.2468,-180.2046 580.2468,-197.2046"/>
<text text-anchor="middle" x="566.2498" y="-186.0046" font-family="Times,serif" font-size="9.00" fill="#000000">&#45;14</text>
</g>
<!-- &#45;14&#45;&gt;54 -->
<g id="edge14" class="edge">
<title>&#45;14&#45;&gt;54</title>
<path fill="none" stroke="#00ff00" stroke-width=".1403" d="M552.1485,-181.0804C533.1713,-170.8199 499.116,-152.407 475.8658,-139.8362"/>
<polygon fill="#00ff00" stroke="#00ff00" stroke-width=".1403" points="477.4001,-136.687 466.9388,-135.0096 474.0708,-142.8446 477.4001,-136.687"/>
</g>
<!-- &#45;15 -->
<g id="node15" class="node">
<title>&#45;15</title>
<polygon fill="#d3d3d3" stroke="#000000" points="626.2468,-197.2046 598.2527,-197.2046 598.2527,-180.2046 626.2468,-180.2046 626.2468,-197.2046"/>
<text text-anchor="middle" x="612.2498" y="-186.0046" font-family="Times,serif" font-size="9.00" fill="#000000">&#45;15</text>
</g>
<!-- &#45;15&#45;&gt;54 -->
<g id="edge15" class="edge">
<title>&#45;15&#45;&gt;54</title>
<path fill="none" stroke="#00ff00" stroke-width=".129" d="M598.2437,-183.2955C571.3661,-172.9155 512.1643,-150.0519 477.6531,-136.7238"/>
<polygon fill="#00ff00" stroke="#00ff00" stroke-width=".129" points="478.7991,-133.4145 468.2096,-133.0768 476.2772,-139.9445 478.7991,-133.4145"/>
</g>
<!-- &#45;16 -->
<g id="node16" class="node">
<title>&#45;16</title>
<polygon fill="#d3d3d3" stroke="#000000" points="672.2468,-197.2046 644.2527,-197.2046 644.2527,-180.2046 672.2468,-180.2046 672.2468,-197.2046"/>
<text text-anchor="middle" x="658.2498" y="-186.0046" font-family="Times,serif" font-size="9.00" fill="#000000">&#45;16</text>
</g>
<!-- &#45;16&#45;&gt;54 -->
<g id="edge16" class="edge">
<title>&#45;16&#45;&gt;54</title>
<path fill="none" stroke="#00ff00" stroke-width=".3326" d="M644.1951,-183.3329C641.2529,-182.2584 638.1602,-181.1656 635.2498,-180.2046 579.8884,-161.9246 514.1202,-143.5236 478.121,-133.7296"/>
<polygon fill="#00ff00" stroke="#00ff00" stroke-width=".3326" points="478.9363,-130.3244 468.3691,-131.0892 477.1068,-137.0811 478.9363,-130.3244"/>
</g>
<!-- &#45;17 -->
<g id="node17" class="node">
<title>&#45;17</title>
<polygon fill="#d3d3d3" stroke="#000000" points="718.2468,-197.2046 690.2527,-197.2046 690.2527,-180.2046 718.2468,-180.2046 718.2468,-197.2046"/>
<text text-anchor="middle" x="704.2498" y="-186.0046" font-family="Times,serif" font-size="9.00" fill="#000000">&#45;17</text>
</g>
<!-- &#45;17&#45;&gt;54 -->
<g id="edge17" class="edge">
<title>&#45;17&#45;&gt;54</title>
<path fill="none" stroke="#00ff00" stroke-width=".1303" d="M690.234,-183.2093C687.2891,-182.1438 684.1854,-181.0859 681.2498,-180.2046 609.2037,-158.5766 522.3029,-140.3811 478.8358,-131.8052"/>
<polygon fill="#00ff00" stroke="#00ff00" stroke-width=".1303" points="479.2417,-128.3184 468.7561,-129.836 477.8994,-135.1886 479.2417,-128.3184"/>
</g>
<!-- &#45;18 -->
<g id="node18" class="node">
<title>&#45;18</title>
<polygon fill="#d3d3d3" stroke="#000000" points="764.2468,-197.2046 736.2527,-197.2046 736.2527,-180.2046 764.2468,-180.2046 764.2468,-197.2046"/>
<text text-anchor="middle" x="750.2498" y="-186.0046" font-family="Times,serif" font-size="9.00" fill="#000000">&#45;18</text>
</g>
<!-- &#45;18&#45;&gt;54 -->
<g id="edge18" class="edge">
<title>&#45;18&#45;&gt;54</title>
<path fill="none" stroke="#ff0000" stroke-width=".1929" d="M735.7661,-182.9482C732.9667,-181.9509 730.0373,-180.9852 727.2498,-180.2046 637.9124,-155.1869 529.1033,-137.7306 478.9733,-130.3972"/>
<polygon fill="#ff0000" stroke="#ff0000" stroke-width=".1929" points="479.3142,-126.9103 468.9171,-128.9475 478.3153,-133.8387 479.3142,-126.9103"/>
</g>
<!-- &#45;19 -->
<g id="node19" class="node">
<title>&#45;19</title>
<polygon fill="#d3d3d3" stroke="#000000" points="810.2468,-197.2046 782.2527,-197.2046 782.2527,-180.2046 810.2468,-180.2046 810.2468,-197.2046"/>
<text text-anchor="middle" x="796.2498" y="-186.0046" font-family="Times,serif" font-size="9.00" fill="#000000">&#45;19</text>
</g>
<!-- &#45;19&#45;&gt;54 -->
<g id="edge19" class="edge">
<title>&#45;19&#45;&gt;54</title>
<path fill="none" stroke="#ff0000" stroke-width=".1555" d="M781.7826,-182.8874C778.9818,-181.8957 776.0475,-180.9476 773.2498,-180.2046 666.4378,-151.8372 535.5178,-135.5412 479.1908,-129.3857"/>
<polygon fill="#ff0000" stroke="#ff0000" stroke-width=".1555" points="479.265,-125.8737 468.9492,-128.2893 478.5198,-132.834 479.265,-125.8737"/>
</g>
<!-- &#45;20 -->
<g id="node20" class="node">
<title>&#45;20</title>
<polygon fill="#d3d3d3" stroke="#000000" points="856.2468,-197.2046 828.2527,-197.2046 828.2527,-180.2046 856.2468,-180.2046 856.2468,-197.2046"/>
<text text-anchor="middle" x="842.2498" y="-186.0046" font-family="Times,serif" font-size="9.00" fill="#000000">&#45;20</text>
</g>
<!-- &#45;20&#45;&gt;54 -->
<g id="edge20" class="edge">
<title>&#45;20&#45;&gt;54</title>
<path fill="none" stroke="#ff0000" stroke-width=".2284" d="M827.7946,-182.8413C824.9927,-181.8538 822.0549,-180.9192 819.2498,-180.2046 694.7108,-148.4816 541.3605,-133.6387 479.2937,-128.6046"/>
<polygon fill="#ff0000" stroke="#ff0000" stroke-width=".2284" points="479.3716,-125.1 469.1272,-127.8024 478.8209,-132.0783 479.3716,-125.1"/>
</g>
<!-- &#45;21 -->
<g id="node21" class="node">
<title>&#45;21</title>
<polygon fill="#d3d3d3" stroke="#000000" points="902.2468,-197.2046 874.2527,-197.2046 874.2527,-180.2046 902.2468,-180.2046 902.2468,-197.2046"/>
<text text-anchor="middle" x="888.2498" y="-186.0046" font-family="Times,serif" font-size="9.00" fill="#000000">&#45;21</text>
</g>
<!-- &#45;21&#45;&gt;54 -->
<g id="edge21" class="edge">
<title>&#45;21&#45;&gt;54</title>
<path fill="none" stroke="#00ff00" stroke-width=".1104" d="M873.8037,-182.8051C871.0009,-181.821 868.0605,-180.8968 865.2498,-180.2046 722.9246,-145.1539 547.0941,-131.983 479.5231,-127.997"/>
<polygon fill="#00ff00" stroke="#00ff00" stroke-width=".1104" points="479.4515,-124.4874 469.2691,-127.4145 479.0545,-131.4761 479.4515,-124.4874"/>
</g>
<!-- &#45;22 -->
<g id="node22" class="node">
<title>&#45;22</title>
<polygon fill="#d3d3d3" stroke="#000000" points="948.2468,-197.2046 920.2527,-197.2046 920.2527,-180.2046 948.2468,-180.2046 948.2468,-197.2046"/>
<text text-anchor="middle" x="934.2498" y="-186.0046" font-family="Times,serif" font-size="9.00" fill="#000000">&#45;22</text>
</g>
<!-- &#45;22&#45;&gt;54 -->
<g id="edge22" class="edge">
<title>&#45;22&#45;&gt;54</title>
<path fill="none" stroke="#00ff00" stroke-width=".1966" d="M919.8107,-182.7761C917.0073,-181.7946 914.0649,-180.8789 911.2498,-180.2046 750.6028,-141.7281 551.5299,-130.4372 479.1796,-127.4784"/>
<polygon fill="#00ff00" stroke="#00ff00" stroke-width=".1966" points="479.1896,-123.9763 469.0615,-127.0861 478.9183,-130.971 479.1896,-123.9763"/>
</g>
<!-- A XOR B -->
<g id="node23" class="node">
<title>A XOR B</title>
<ellipse fill="#add8e6" stroke="#000000" cx="382.2498" cy="-36.4246" rx="36.3494" ry="36.3494"/>
<text text-anchor="middle" x="382.2498" y="-33.7246" font-family="Times,serif" font-size="9.00" fill="#000000">A XOR B</text>
</g>
<!-- 1 -->
<g id="node24" class="node">
<title>1</title>
<ellipse fill="#add8e6" stroke="#000000" cx="451.2498" cy="-36.4246" rx="14.4914" ry="14.4914"/>
<text text-anchor="middle" x="451.2498" y="-33.7246" font-family="Times,serif" font-size="9.00" fill="#000000">1</text>
</g>
<!-- 2 -->
<g id="node25" class="node">
<title>2</title>
<ellipse fill="#add8e6" stroke="#000000" cx="498.2498" cy="-36.4246" rx="14.4914" ry="14.4914"/>
<text text-anchor="middle" x="498.2498" y="-33.7246" font-family="Times,serif" font-size="9.00" fill="#000000">2</text>
</g>
<!-- 54&#45;&gt;A XOR B -->
<g id="edge23" class="edge">
<title>54&#45;&gt;A XOR B</title>
<path fill="none" stroke="#ff0000" stroke-width=".1399" d="M440.4685,-112.4484C432.5587,-102.1195 421.4248,-87.5806 411.0092,-73.9796"/>
<polygon fill="#ff0000" stroke="#ff0000" stroke-width=".1399" points="413.5109,-71.4897 404.6521,-65.6783 407.9533,-75.7457 413.5109,-71.4897"/>
</g>
<!-- 54&#45;&gt;1 -->
<g id="edge24" class="edge">
<title>54&#45;&gt;1</title>
<path fill="none" stroke="#ff0000" stroke-width=".1571" d="M451.2498,-108.7256C451.2498,-95.1067 451.2498,-76.1661 451.2498,-61.0873"/>
<polygon fill="#ff0000" stroke="#ff0000" stroke-width=".1571" points="454.7499,-60.9214 451.2498,-50.9214 447.7499,-60.9215 454.7499,-60.9214"/>
</g>
<!-- 54&#45;&gt;2 -->
<g id="edge25" class="edge">
<title>54&#45;&gt;2</title>
<path fill="none" stroke="#ff0000" stroke-width=".2514" d="M459.4365,-110.8323C466.9724,-96.3855 478.2295,-74.8049 486.6826,-58.5997"/>
<polygon fill="#ff0000" stroke="#ff0000" stroke-width=".2514" points="490.0034,-59.8011 491.5252,-49.3161 483.797,-56.5637 490.0034,-59.8011"/>
</g>
</g>
</svg>
