<?xml version="1.0" encoding="UTF-8" standalone="no"?>
<!DOCTYPE svg PUBLIC "-//W3C//DTD SVG 1.1//EN"
 "http://www.w3.org/Graphics/SVG/1.1/DTD/svg11.dtd">
<!-- Generated by graphviz version 2.40.1 (20161225.0304)
 -->
<!-- Title: %3 Pages: 1 -->
<svg width="956pt" height="134pt"
 viewBox="0.00 0.00 956.50 133.85" xmlns="http://www.w3.org/2000/svg" xmlns:xlink="http://www.w3.org/1999/xlink">
<g id="graph0" class="graph" transform="scale(1 1) rotate(0) translate(4 129.8493)">
<title>%3</title>
<polygon fill="#ffffff" stroke="transparent" points="-4,4 -4,-129.8493 952.4971,-129.8493 952.4971,4 -4,4"/>
<!-- A -->
<g id="node1" class="node">
<title>A</title>
<polygon fill="#d3d3d3" stroke="#000000" points="744.2537,-125.8493 721.2434,-125.8493 721.2434,-108.8493 744.2537,-108.8493 744.2537,-125.8493"/>
<text text-anchor="middle" x="732.7485" y="-114.6493" font-family="Times,serif" font-size="9.00" fill="#000000">A</text>
</g>
<!-- A XOR B -->
<g id="node23" class="node">
<title>A XOR B</title>
<ellipse fill="#add8e6" stroke="#000000" cx="424.7485" cy="-36.4246" rx="36.3494" ry="36.3494"/>
<text text-anchor="middle" x="424.7485" y="-33.7246" font-family="Times,serif" font-size="9.00" fill="#000000">A XOR B</text>
</g>
<!-- A&#45;&gt;A XOR B -->
<g id="edge1" class="edge">
<title>A&#45;&gt;A XOR B</title>
<path fill="none" stroke="#00ff00" stroke-width=".2524" d="M721.0832,-111.8058C718.3921,-110.6925 715.5083,-109.6273 712.7485,-108.8493 608.0886,-79.3451 570.5312,-116.0651 470.7485,-72.8493 467.0679,-71.2552 463.4313,-69.2898 459.9122,-67.105"/>
<polygon fill="#00ff00" stroke="#00ff00" stroke-width=".2524" points="461.677,-64.0715 451.4487,-61.3087 457.7216,-69.8469 461.677,-64.0715"/>
</g>
<!-- 1 -->
<g id="node24" class="node">
<title>1</title>
<ellipse fill="#add8e6" stroke="#000000" cx="493.7485" cy="-36.4246" rx="14.4914" ry="14.4914"/>
<text text-anchor="middle" x="493.7485" y="-33.7246" font-family="Times,serif" font-size="9.00" fill="#000000">1</text>
</g>
<!-- A&#45;&gt;1 -->
<g id="edge2" class="edge">
<title>A&#45;&gt;1</title>
<path fill="none" stroke="#ff0000" stroke-width=".2919" d="M721.4855,-112.0536C718.6758,-110.8749 715.6388,-109.7187 712.7485,-108.8493 628.3534,-83.4609 591.2063,-121.5429 517.7485,-72.8493 512.4108,-69.311 507.9807,-64.1359 504.4411,-58.7914"/>
<polygon fill="#ff0000" stroke="#ff0000" stroke-width=".2919" points="507.3433,-56.8173 499.3217,-49.896 501.2763,-60.309 507.3433,-56.8173"/>
</g>
<!-- 2 -->
<g id="node25" class="node">
<title>2</title>
<ellipse fill="#add8e6" stroke="#000000" cx="540.7485" cy="-36.4246" rx="14.4914" ry="14.4914"/>
<text text-anchor="middle" x="540.7485" y="-33.7246" font-family="Times,serif" font-size="9.00" fill="#000000">2</text>
</g>
<!-- A&#45;&gt;2 -->
<g id="edge3" class="edge">
<title>A&#45;&gt;2</title>
<path fill="none" stroke="#ff0000" stroke-width=".1345" d="M721.3288,-112.4881C718.5238,-111.2962 715.5283,-110.0252 712.7485,-108.8493 659.4349,-86.2957 596.7605,-59.9466 563.7589,-46.085"/>
<polygon fill="#ff0000" stroke="#ff0000" stroke-width=".1345" points="564.7114,-42.689 554.1362,-42.044 562.0009,-49.143 564.7114,-42.689"/>
</g>
<!-- B -->
<g id="node2" class="node">
<title>B</title>
<polygon fill="#d3d3d3" stroke="#000000" points="783.7515,-125.8493 761.7456,-125.8493 761.7456,-108.8493 783.7515,-108.8493 783.7515,-125.8493"/>
<text text-anchor="middle" x="772.7485" y="-114.6493" font-family="Times,serif" font-size="9.00" fill="#000000">B</text>
</g>
<!-- B&#45;&gt;A XOR B -->
<g id="edge4" class="edge">
<title>B&#45;&gt;A XOR B</title>
<path fill="none" stroke="#00ff00" stroke-width=".2824" d="M761.5182,-111.9392C758.7075,-110.764 755.6619,-109.6381 752.7485,-108.8493 630.7895,-75.8274 587.2056,-121.8614 470.7485,-72.8493 467.0516,-71.2934 463.4037,-69.3544 459.8772,-67.187"/>
<polygon fill="#00ff00" stroke="#00ff00" stroke-width=".2824" points="461.6383,-64.1518 451.4025,-61.417 457.6987,-69.938 461.6383,-64.1518"/>
</g>
<!-- B&#45;&gt;1 -->
<g id="edge5" class="edge">
<title>B&#45;&gt;1</title>
<path fill="none" stroke="#ff0000" stroke-width=".2786" d="M761.5039,-111.9908C758.6936,-110.814 755.6518,-109.6745 752.7485,-108.8493 651.1118,-79.9596 606.7004,-129.8774 517.7485,-72.8493 512.3574,-69.3929 507.9092,-64.2456 504.3692,-58.9016"/>
<polygon fill="#ff0000" stroke="#ff0000" stroke-width=".2786" points="507.2701,-56.9241 499.263,-49.9861 501.1958,-60.4031 507.2701,-56.9241"/>
</g>
<!-- B&#45;&gt;2 -->
<g id="edge6" class="edge">
<title>B&#45;&gt;2</title>
<path fill="none" stroke="#00ff00" stroke-width=".1388" d="M761.3842,-112.3505C758.5776,-111.1628 755.5674,-109.9281 752.7485,-108.8493 685.2028,-82.9973 603.9291,-56.4892 564.5089,-43.9181"/>
<polygon fill="#00ff00" stroke="#00ff00" stroke-width=".1388" points="565.3549,-40.5145 554.7645,-40.8231 563.2358,-47.1861 565.3549,-40.5145"/>
</g>
<!-- &#45;3 -->
<g id="node3" class="node">
<title>&#45;3</title>
<polygon fill="#d3d3d3" stroke="#000000" points="825.751,-125.8493 801.7461,-125.8493 801.7461,-108.8493 825.751,-108.8493 825.751,-125.8493"/>
<text text-anchor="middle" x="813.7485" y="-114.6493" font-family="Times,serif" font-size="9.00" fill="#000000">&#45;3</text>
</g>
<!-- &#45;3&#45;&gt;A XOR B -->
<g id="edge7" class="edge">
<title>&#45;3&#45;&gt;A XOR B</title>
<path fill="none" stroke="#ff0000" stroke-width=".3042" d="M801.9443,-111.9158C798.9935,-110.7412 795.7988,-109.6215 792.7485,-108.8493 653.1505,-73.5055 603.9083,-127.6696 470.7485,-72.8493 467.0396,-71.3223 463.3833,-69.4034 459.8513,-67.2492"/>
<polygon fill="#ff0000" stroke="#ff0000" stroke-width=".3042" points="461.6097,-64.2128 451.3683,-61.499 457.682,-70.0071 461.6097,-64.2128"/>
</g>
<!-- &#45;3&#45;&gt;1 -->
<g id="edge8" class="edge">
<title>&#45;3&#45;&gt;1</title>
<path fill="none" stroke="#ff0000" stroke-width=".1657" d="M801.9338,-111.9564C798.9833,-110.7807 795.7914,-109.6502 792.7485,-108.8493 673.544,-77.4716 622.2391,-138.2404 517.7485,-72.8493 512.32,-69.452 507.8591,-64.3248 504.3189,-58.9811"/>
<polygon fill="#ff0000" stroke="#ff0000" stroke-width=".1657" points="507.2187,-57.0009 499.2219,-50.051 501.1392,-60.4709 507.2187,-57.0009"/>
</g>
<!-- &#45;3&#45;&gt;2 -->
<g id="edge9" class="edge">
<title>&#45;3&#45;&gt;2</title>
<path fill="none" stroke="#00ff00" stroke-width=".1043" d="M801.8368,-112.2759C798.8892,-111.0904 795.723,-109.8755 792.7485,-108.8493 710.0847,-80.3286 609.5838,-53.83 564.562,-42.3783"/>
<polygon fill="#00ff00" stroke="#00ff00" stroke-width=".1043" points="565.3943,-38.9787 554.8415,-39.9209 563.6786,-45.7652 565.3943,-38.9787"/>
</g>
<!-- &#45;4 -->
<g id="node4" class="node">
<title>&#45;4</title>
<polygon fill="#d3d3d3" stroke="#000000" points="866.751,-125.8493 842.7461,-125.8493 842.7461,-108.8493 866.751,-108.8493 866.751,-125.8493"/>
<text text-anchor="middle" x="854.7485" y="-114.6493" font-family="Times,serif" font-size="9.00" fill="#000000">&#45;4</text>
</g>
<!-- &#45;4&#45;&gt;A XOR B -->
<g id="edge10" class="edge">
<title>&#45;4&#45;&gt;A XOR B</title>
<path fill="none" stroke="#ff0000" stroke-width=".1752" d="M842.6835,-111.5306C840.1138,-110.4886 837.3804,-109.5219 834.7485,-108.8493 677.2444,-68.594 621.4665,-133.7767 470.7485,-72.8493 467.0299,-71.346 463.367,-69.4435 459.8305,-67.3001"/>
<polygon fill="#ff0000" stroke="#ff0000" stroke-width=".1752" points="461.5868,-64.2628 451.3409,-61.5661 457.6689,-70.0636 461.5868,-64.2628"/>
</g>
<!-- &#45;4&#45;&gt;1 -->
<g id="edge11" class="edge">
<title>&#45;4&#45;&gt;1</title>
<path fill="none" stroke="#ff0000" stroke-width=".2226" d="M842.6759,-111.5602C840.1067,-110.516 837.3754,-109.541 834.7485,-108.8493 697.6282,-72.7427 638.5846,-147.0404 517.7485,-72.8493 512.2912,-69.4985 507.8205,-64.3871 504.2801,-59.0437"/>
<polygon fill="#ff0000" stroke="#ff0000" stroke-width=".2226" points="507.179,-57.0612 499.1902,-50.1021 501.0955,-60.5242 507.179,-57.0612"/>
</g>
<!-- &#45;4&#45;&gt;2 -->
<g id="edge12" class="edge">
<title>&#45;4&#45;&gt;2</title>
<path fill="none" stroke="#ff0000" stroke-width=".2087" d="M842.5987,-111.8192C840.0351,-110.7563 837.3256,-109.7081 834.7485,-108.8493 736.7144,-76.1765 615.8842,-50.977 565.0712,-41.0387"/>
<polygon fill="#ff0000" stroke="#ff0000" stroke-width=".2087" points="565.5363,-37.5638 555.0535,-39.1005 564.2066,-44.4364 565.5363,-37.5638"/>
</g>
<!-- &#45;5 -->
<g id="node5" class="node">
<title>&#45;5</title>
<polygon fill="#d3d3d3" stroke="#000000" points="907.751,-125.8493 883.7461,-125.8493 883.7461,-108.8493 907.751,-108.8493 907.751,-125.8493"/>
<text text-anchor="middle" x="895.7485" y="-114.6493" font-family="Times,serif" font-size="9.00" fill="#000000">&#45;5</text>
</g>
<!-- &#45;5&#45;&gt;A XOR B -->
<g id="edge13" class="edge">
<title>&#45;5&#45;&gt;A XOR B</title>
<path fill="none" stroke="#ff0000" stroke-width=".2025" d="M883.6887,-111.5104C881.1186,-110.4698 878.3837,-109.5088 875.7485,-108.8493 700.4468,-64.9708 638.6208,-139.744 470.7485,-72.8493 467.0225,-71.3645 463.3544,-69.4747 459.8146,-67.3398"/>
<polygon fill="#ff0000" stroke="#ff0000" stroke-width=".2025" points="461.5693,-64.3018 451.3199,-61.6185 457.6589,-70.1077 461.5693,-64.3018"/>
</g>
<!-- &#45;5&#45;&gt;1 -->
<g id="edge14" class="edge">
<title>&#45;5&#45;&gt;1</title>
<path fill="none" stroke="#ff0000" stroke-width=".1217" d="M883.6827,-111.534C881.113,-110.4917 878.3798,-109.5241 875.7485,-108.8493 798.2982,-88.9866 586.1546,-114.2461 517.7485,-72.8493 512.2697,-69.5337 507.7918,-64.4341 504.2512,-59.091"/>
<polygon fill="#ff0000" stroke="#ff0000" stroke-width=".1217" points="507.1494,-57.1067 499.1666,-50.1407 501.063,-60.5644 507.1494,-57.1067"/>
</g>
<!-- &#45;5&#45;&gt;2 -->
<g id="edge15" class="edge">
<title>&#45;5&#45;&gt;2</title>
<path fill="none" stroke="#ff0000" stroke-width=".2052" d="M883.6173,-111.762C881.0524,-110.7031 878.3376,-109.6712 875.7485,-108.8493 762.2315,-72.8126 621.436,-48.8536 565.4116,-40.1156"/>
<polygon fill="#ff0000" stroke="#ff0000" stroke-width=".2052" points="565.7859,-36.6321 555.3702,-38.5719 564.7222,-43.5509 565.7859,-36.6321"/>
</g>
<!-- &#45;6 -->
<g id="node6" class="node">
<title>&#45;6</title>
<polygon fill="#d3d3d3" stroke="#000000" points="948.751,-125.8493 924.7461,-125.8493 924.7461,-108.8493 948.751,-108.8493 948.751,-125.8493"/>
<text text-anchor="middle" x="936.7485" y="-114.6493" font-family="Times,serif" font-size="9.00" fill="#000000">&#45;6</text>
</g>
<!-- &#45;6&#45;&gt;A XOR B -->
<g id="edge16" class="edge">
<title>&#45;6&#45;&gt;A XOR B</title>
<path fill="none" stroke="#00ff00" stroke-width=".1834" d="M924.6928,-111.4938C922.1224,-110.4544 919.3863,-109.4981 916.7485,-108.8493 723.6387,-61.345 655.7852,-145.7154 470.7485,-72.8493 467.0165,-71.3796 463.3443,-69.5003 459.8017,-67.3722"/>
<polygon fill="#00ff00" stroke="#00ff00" stroke-width=".1834" points="461.5552,-64.3337 451.3029,-61.6613 457.651,-70.1439 461.5552,-64.3337"/>
</g>
<!-- &#45;6&#45;&gt;1 -->
<g id="edge17" class="edge">
<title>&#45;6&#45;&gt;1</title>
<path fill="none" stroke="#00ff00" stroke-width=".2512" d="M924.688,-111.5131C922.1179,-110.4723 919.3832,-109.5106 916.7485,-108.8493 830.4003,-87.1752 594.1494,-118.5515 517.7485,-72.8493 512.2528,-69.5618 507.7691,-64.4718 504.2285,-59.1288"/>
<polygon fill="#00ff00" stroke="#00ff00" stroke-width=".2512" points="507.1261,-57.1431 499.1481,-50.1716 501.0373,-60.5966 507.1261,-57.1431"/>
</g>
<!-- &#45;6&#45;&gt;2 -->
<g id="edge18" class="edge">
<title>&#45;6&#45;&gt;2</title>
<path fill="none" stroke="#ff0000" stroke-width=".3633" d="M924.6315,-111.7165C922.0655,-110.661 919.3468,-109.6418 916.7485,-108.8493 787.4522,-69.408 626.329,-46.9291 565.5169,-39.3505"/>
<polygon fill="#ff0000" stroke="#ff0000" stroke-width=".3633" points="565.7106,-35.8482 555.3596,-38.108 564.8606,-42.7964 565.7106,-35.8482"/>
</g>
<!-- &#45;7 -->
<g id="node7" class="node">
<title>&#45;7</title>
<polygon fill="#d3d3d3" stroke="#000000" points="23.751,-125.8493 -.2539,-125.8493 -.2539,-108.8493 23.751,-108.8493 23.751,-125.8493"/>
<text text-anchor="middle" x="11.7485" y="-114.6493" font-family="Times,serif" font-size="9.00" fill="#000000">&#45;7</text>
</g>
<!-- &#45;7&#45;&gt;A XOR B -->
<g id="edge19" class="edge">
<title>&#45;7&#45;&gt;A XOR B</title>
<path fill="none" stroke="#ff0000" stroke-width=".2303" d="M23.8607,-111.7003C26.427,-110.6459 29.1472,-109.6314 31.7485,-108.8493 154.2178,-72.0285 304.0751,-50.6835 378.3846,-41.6179"/>
<polygon fill="#ff0000" stroke="#ff0000" stroke-width=".2303" points="378.8467,-45.0876 388.3579,-40.4199 378.0118,-38.1376 378.8467,-45.0876"/>
</g>
<!-- &#45;7&#45;&gt;1 -->
<g id="edge20" class="edge">
<title>&#45;7&#45;&gt;1</title>
<path fill="none" stroke="#ff0000" stroke-width=".1534" d="M23.805,-111.4968C26.3754,-110.4572 29.1112,-109.5001 31.7485,-108.8493 126.5657,-85.451 385.7384,-122.6496 469.7485,-72.8493 475.2573,-69.5837 479.7454,-64.5011 483.2862,-59.1583"/>
<polygon fill="#ff0000" stroke="#ff0000" stroke-width=".1534" points="486.4797,-60.6217 488.3634,-50.1957 480.389,-57.1714 486.4797,-60.6217"/>
</g>
<!-- &#45;7&#45;&gt;2 -->
<g id="edge21" class="edge">
<title>&#45;7&#45;&gt;2</title>
<path fill="none" stroke="#ff0000" stroke-width=".2301" d="M23.8011,-111.4806C26.3717,-110.4422 29.1087,-109.4896 31.7485,-108.8493 136.7768,-83.3717 423.5638,-127.5909 516.7485,-72.8493 522.2702,-69.6056 526.7627,-64.5304 530.3035,-59.1876"/>
<polygon fill="#ff0000" stroke="#ff0000" stroke-width=".2301" points="533.4993,-60.6467 535.3775,-50.2196 527.4069,-57.1996 533.4993,-60.6467"/>
</g>
<!-- &#45;8 -->
<g id="node8" class="node">
<title>&#45;8</title>
<polygon fill="#d3d3d3" stroke="#000000" points="64.751,-125.8493 40.7461,-125.8493 40.7461,-108.8493 64.751,-108.8493 64.751,-125.8493"/>
<text text-anchor="middle" x="52.7485" y="-114.6493" font-family="Times,serif" font-size="9.00" fill="#000000">&#45;8</text>
</g>
<!-- &#45;8&#45;&gt;A XOR B -->
<g id="edge22" class="edge">
<title>&#45;8&#45;&gt;A XOR B</title>
<path fill="none" stroke="#ff0000" stroke-width=".3012" d="M64.8734,-111.7419C67.4388,-110.6845 70.1554,-109.6582 72.7485,-108.8493 179.9626,-75.4025 310.4405,-53.1833 378.4553,-42.9394"/>
<polygon fill="#ff0000" stroke="#ff0000" stroke-width=".3012" points="379.0482,-46.3898 388.4244,-41.4566 378.0183,-39.466 379.0482,-46.3898"/>
</g>
<!-- &#45;8&#45;&gt;1 -->
<g id="edge23" class="edge">
<title>&#45;8&#45;&gt;1</title>
<path fill="none" stroke="#ff0000" stroke-width=".5403" d="M64.8093,-111.514C67.3794,-110.4731 70.114,-109.5112 72.7485,-108.8493 158.6626,-87.2636 393.7378,-118.3414 469.7485,-72.8493 475.2435,-69.5605 479.727,-64.4701 483.2676,-59.1271"/>
<polygon fill="#ff0000" stroke="#ff0000" stroke-width=".5403" points="486.4587,-60.5952 488.3482,-50.1702 480.37,-57.1415 486.4587,-60.5952"/>
</g>
<!-- &#45;8&#45;&gt;2 -->
<g id="edge24" class="edge">
<title>&#45;8&#45;&gt;2</title>
<path fill="none" stroke="#00ff00" stroke-width=".3766" d="M64.8045,-111.4945C67.3749,-110.4551 70.1109,-109.4986 72.7485,-108.8493 168.869,-85.1856 431.5674,-123.2802 516.7485,-72.8493 522.2591,-69.5868 526.7479,-64.5052 530.2886,-59.1624"/>
<polygon fill="#00ff00" stroke="#00ff00" stroke-width=".3766" points="533.4824,-60.6252 535.3653,-50.199 527.3915,-57.1753 533.4824,-60.6252"/>
</g>
<!-- &#45;9 -->
<g id="node9" class="node">
<title>&#45;9</title>
<polygon fill="#d3d3d3" stroke="#000000" points="105.751,-125.8493 81.7461,-125.8493 81.7461,-108.8493 105.751,-108.8493 105.751,-125.8493"/>
<text text-anchor="middle" x="93.7485" y="-114.6493" font-family="Times,serif" font-size="9.00" fill="#000000">&#45;9</text>
</g>
<!-- &#45;9&#45;&gt;A XOR B -->
<g id="edge25" class="edge">
<title>&#45;9&#45;&gt;A XOR B</title>
<path fill="none" stroke="#00ff00" stroke-width=".3476" d="M105.6249,-112.1693C108.5736,-110.987 111.7492,-109.8003 114.7485,-108.8493 206.6341,-79.7136 317.2066,-56.6613 378.3543,-44.9268"/>
<polygon fill="#00ff00" stroke="#00ff00" stroke-width=".3476" points="379.2876,-48.3121 388.4573,-43.0048 377.9794,-41.4354 379.2876,-48.3121"/>
</g>
<!-- &#45;9&#45;&gt;1 -->
<g id="edge26" class="edge">
<title>&#45;9&#45;&gt;1</title>
<path fill="none" stroke="#00ff00" stroke-width=".1522" d="M105.5472,-111.8935C108.4982,-110.7197 111.6943,-109.6059 114.7485,-108.8493 191.7156,-89.7828 401.9272,-113.9312 469.7485,-72.8493 475.2259,-69.5314 479.7034,-64.4311 483.244,-59.0879"/>
<polygon fill="#00ff00" stroke="#00ff00" stroke-width=".1522" points="486.432,-60.5618 488.3289,-50.1382 480.3457,-57.1038 486.432,-60.5618"/>
</g>
<!-- &#45;9&#45;&gt;2 -->
<g id="edge27" class="edge">
<title>&#45;9&#45;&gt;2</title>
<path fill="none" stroke="#ff0000" stroke-width=".2823" d="M105.5409,-111.8681C108.4922,-110.695 111.6899,-109.5879 114.7485,-108.8493 201.9331,-87.7945 439.7625,-118.8666 516.7485,-72.8493 522.2453,-69.5636 526.7294,-64.4742 530.2701,-59.1312"/>
<polygon fill="#ff0000" stroke="#ff0000" stroke-width=".2823" points="533.4615,-60.5987 535.3502,-50.1736 527.3725,-57.1454 533.4615,-60.5987"/>
</g>
<!-- &#45;10 -->
<g id="node10" class="node">
<title>&#45;10</title>
<polygon fill="#d3d3d3" stroke="#000000" points="151.7456,-125.8493 123.7515,-125.8493 123.7515,-108.8493 151.7456,-108.8493 151.7456,-125.8493"/>
<text text-anchor="middle" x="137.7485" y="-114.6493" font-family="Times,serif" font-size="9.00" fill="#000000">&#45;10</text>
</g>
<!-- &#45;10&#45;&gt;A XOR B -->
<g id="edge28" class="edge">
<title>&#45;10&#45;&gt;A XOR B</title>
<path fill="none" stroke="#ff0000" stroke-width=".325" d="M151.7914,-111.9412C154.7344,-110.8694 157.8304,-109.7868 160.7485,-108.8493 236.6271,-84.4702 326.3767,-60.9535 379.2664,-47.6302"/>
<polygon fill="#ff0000" stroke="#ff0000" stroke-width=".325" points="380.1716,-51.0116 389.0195,-45.1836 378.4685,-44.222 380.1716,-51.0116"/>
</g>
<!-- &#45;10&#45;&gt;1 -->
<g id="edge29" class="edge">
<title>&#45;10&#45;&gt;1</title>
<path fill="none" stroke="#00ff00" stroke-width=".2265" d="M152.1875,-111.4203C154.9909,-110.4389 157.9333,-109.5233 160.7485,-108.8493 295.2109,-76.6573 352.0277,-145.3631 469.7485,-72.8493 475.201,-69.4906 479.6701,-64.3765 483.2105,-59.033"/>
<polygon fill="#00ff00" stroke="#00ff00" stroke-width=".2265" points="486.3942,-60.5151 488.3015,-50.0934 480.3114,-57.051 486.3942,-60.5151"/>
</g>
<!-- &#45;10&#45;&gt;2 -->
<g id="edge30" class="edge">
<title>&#45;10&#45;&gt;2</title>
<path fill="none" stroke="#ff0000" stroke-width=".2511" d="M152.1793,-111.3857C154.9835,-110.4075 157.9283,-109.5018 160.7485,-108.8493 238.2163,-90.9239 448.7323,-114.0362 516.7485,-72.8493 522.2264,-69.5322 526.7041,-64.4321 530.2446,-59.0889"/>
<polygon fill="#ff0000" stroke="#ff0000" stroke-width=".2511" points="533.4327,-60.5627 535.3294,-50.139 527.3464,-57.1048 533.4327,-60.5627"/>
</g>
<!-- &#45;11 -->
<g id="node11" class="node">
<title>&#45;11</title>
<polygon fill="#d3d3d3" stroke="#000000" points="197.418,-125.8493 170.0791,-125.8493 170.0791,-108.8493 197.418,-108.8493 197.418,-125.8493"/>
<text text-anchor="middle" x="183.7485" y="-114.6493" font-family="Times,serif" font-size="9.00" fill="#000000">&#45;11</text>
</g>
<!-- &#45;11&#45;&gt;A XOR B -->
<g id="edge31" class="edge">
<title>&#45;11&#45;&gt;A XOR B</title>
<path fill="none" stroke="#00ff00" stroke-width=".1179" d="M197.8315,-112.0605C200.7716,-110.9801 203.8563,-109.8638 206.7485,-108.8493 266.5762,-87.8626 336.1679,-65.0114 380.3246,-50.7047"/>
<polygon fill="#00ff00" stroke="#00ff00" stroke-width=".1179" points="381.4544,-54.0179 389.8917,-47.6098 379.2998,-47.3577 381.4544,-54.0179"/>
</g>
<!-- &#45;11&#45;&gt;1 -->
<g id="edge32" class="edge">
<title>&#45;11&#45;&gt;1</title>
<path fill="none" stroke="#00ff00" stroke-width=".38" d="M197.7055,-111.6404C200.6548,-110.5904 203.775,-109.5928 206.7485,-108.8493 321.2037,-80.2308 369.9231,-135.7293 469.7485,-72.8493 475.1671,-69.4361 479.6246,-64.3034 483.1648,-58.9597"/>
<polygon fill="#00ff00" stroke="#00ff00" stroke-width=".38" points="486.3427,-60.4526 488.2642,-50.0335 480.2647,-56.9802 486.3427,-60.4526"/>
</g>
<!-- &#45;11&#45;&gt;2 -->
<g id="edge33" class="edge">
<title>&#45;11&#45;&gt;2</title>
<path fill="none" stroke="#00ff00" stroke-width=".2518" d="M197.694,-111.5933C200.6441,-110.5467 203.7676,-109.5624 206.7485,-108.8493 341.6462,-76.5795 398.6384,-145.5727 516.7485,-72.8493 522.2017,-69.4916 526.6709,-64.3778 530.2113,-59.0344"/>
<polygon fill="#00ff00" stroke="#00ff00" stroke-width=".2518" points="533.3951,-60.5163 535.3022,-50.0945 527.3122,-57.0523 533.3951,-60.5163"/>
</g>
<!-- &#45;12 -->
<g id="node12" class="node">
<title>&#45;12</title>
<polygon fill="#d3d3d3" stroke="#000000" points="243.7456,-125.8493 215.7515,-125.8493 215.7515,-108.8493 243.7456,-108.8493 243.7456,-125.8493"/>
<text text-anchor="middle" x="229.7485" y="-114.6493" font-family="Times,serif" font-size="9.00" fill="#000000">&#45;12</text>
</g>
<!-- &#45;12&#45;&gt;A XOR B -->
<g id="edge34" class="edge">
<title>&#45;12&#45;&gt;A XOR B</title>
<path fill="none" stroke="#ff0000" stroke-width=".1253" d="M243.7725,-111.5294C272.2477,-99.7122 337.8563,-72.4847 381.7511,-54.2685"/>
<polygon fill="#ff0000" stroke="#ff0000" stroke-width=".1253" points="383.1448,-57.4796 391.0395,-50.4138 380.4617,-51.0142 383.1448,-57.4796"/>
</g>
<!-- &#45;12&#45;&gt;1 -->
<g id="edge35" class="edge">
<title>&#45;12&#45;&gt;1</title>
<path fill="none" stroke="#00ff00" stroke-width=".1715" d="M244.2152,-111.5303C247.0161,-110.5387 249.9505,-109.5912 252.7485,-108.8493 347.2454,-83.792 387.7759,-126.1224 469.7485,-72.8493 475.1181,-69.3596 479.5591,-64.201 483.0989,-58.8568"/>
<polygon fill="#00ff00" stroke="#00ff00" stroke-width=".1715" points="486.2688,-60.3648 488.2105,-49.9494 480.1975,-56.8807 486.2688,-60.3648"/>
</g>
<!-- &#45;12&#45;&gt;2 -->
<g id="edge36" class="edge">
<title>&#45;12&#45;&gt;2</title>
<path fill="none" stroke="#ff0000" stroke-width=".2569" d="M244.1983,-111.4648C247.0008,-110.4793 249.94,-109.5507 252.7485,-108.8493 367.6383,-80.1532 416.5345,-135.9385 516.7485,-72.8493 522.168,-69.4375 526.6258,-64.3053 530.1659,-58.9615"/>
<polygon fill="#ff0000" stroke="#ff0000" stroke-width=".2569" points="533.344,-60.4542 535.2652,-50.035 527.2659,-56.982 533.344,-60.4542"/>
</g>
<!-- &#45;13 -->
<g id="node13" class="node">
<title>&#45;13</title>
<polygon fill="#d3d3d3" stroke="#000000" points="289.7456,-125.8493 261.7515,-125.8493 261.7515,-108.8493 289.7456,-108.8493 289.7456,-125.8493"/>
<text text-anchor="middle" x="275.7485" y="-114.6493" font-family="Times,serif" font-size="9.00" fill="#000000">&#45;13</text>
</g>
<!-- &#45;13&#45;&gt;A XOR B -->
<g id="edge37" class="edge">
<title>&#45;13&#45;&gt;A XOR B</title>
<path fill="none" stroke="#ff0000" stroke-width=".283" d="M289.7661,-109.7361C311.0633,-98.1692 352.4051,-75.7157 383.7517,-58.6908"/>
<polygon fill="#ff0000" stroke="#ff0000" stroke-width=".283" points="385.5964,-61.6718 392.7135,-53.8234 382.2555,-55.5205 385.5964,-61.6718"/>
</g>
<!-- &#45;13&#45;&gt;1 -->
<g id="edge38" class="edge">
<title>&#45;13&#45;&gt;1</title>
<path fill="none" stroke="#ff0000" stroke-width=".129" d="M289.7497,-111.8043C292.6957,-110.7424 295.8035,-109.6985 298.7485,-108.8493 373.3738,-87.3301 405.5537,-116.5645 469.7485,-72.8493 475.0417,-69.2447 479.4567,-64.0471 482.9961,-58.7022"/>
<polygon fill="#ff0000" stroke="#ff0000" stroke-width=".129" points="486.1539,-60.2328 488.1265,-49.8232 480.0929,-56.7307 486.1539,-60.2328"/>
</g>
<!-- &#45;13&#45;&gt;2 -->
<g id="edge39" class="edge">
<title>&#45;13&#45;&gt;2</title>
<path fill="none" stroke="#ff0000" stroke-width=".3105" d="M290.2147,-111.5286C293.0157,-110.5372 295.9502,-109.5902 298.7485,-108.8493 393.6786,-83.7148 434.3885,-126.3308 516.7485,-72.8493 522.1194,-69.3616 526.5608,-64.2037 530.1007,-58.8594"/>
<polygon fill="#ff0000" stroke="#ff0000" stroke-width=".3105" points="533.2708,-60.3671 535.2119,-49.9516 527.1992,-56.8833 533.2708,-60.3671"/>
</g>
<!-- &#45;14 -->
<g id="node14" class="node">
<title>&#45;14</title>
<polygon fill="#d3d3d3" stroke="#000000" points="335.7456,-125.8493 307.7515,-125.8493 307.7515,-108.8493 335.7456,-108.8493 335.7456,-125.8493"/>
<text text-anchor="middle" x="321.7485" y="-114.6493" font-family="Times,serif" font-size="9.00" fill="#000000">&#45;14</text>
</g>
<!-- &#45;14&#45;&gt;A XOR B -->
<g id="edge40" class="edge">
<title>&#45;14&#45;&gt;A XOR B</title>
<path fill="none" stroke="#ff0000" stroke-width=".2561" d="M332.7713,-108.6889C345.8493,-98.4138 368.335,-80.7474 387.7996,-65.4545"/>
<polygon fill="#ff0000" stroke="#ff0000" stroke-width=".2561" points="390.2193,-68.0045 395.9203,-59.0743 385.8947,-62.5002 390.2193,-68.0045"/>
</g>
<!-- &#45;14&#45;&gt;1 -->
<g id="edge41" class="edge">
<title>&#45;14&#45;&gt;1</title>
<path fill="none" stroke="#00ff00" stroke-width=".1915" d="M335.8007,-111.9698C338.743,-110.8959 341.8364,-109.8053 344.7485,-108.8493 399.6779,-90.8165 423.1805,-107.1106 469.7485,-72.8493 474.8287,-69.1117 479.1434,-63.951 482.6532,-58.6888"/>
<polygon fill="#00ff00" stroke="#00ff00" stroke-width=".1915" points="485.7296,-60.3621 487.7928,-49.9701 479.6994,-56.8073 485.7296,-60.3621"/>
</g>
<!-- &#45;14&#45;&gt;2 -->
<g id="edge42" class="edge">
<title>&#45;14&#45;&gt;2</title>
<path fill="none" stroke="#00ff00" stroke-width=".355" d="M335.7489,-111.8016C338.695,-110.7399 341.803,-109.6968 344.7485,-108.8493 419.8044,-87.2536 452.1684,-116.7715 516.7485,-72.8493 522.0438,-69.2478 526.4595,-64.0513 529.9989,-58.7064"/>
<polygon fill="#00ff00" stroke="#00ff00" stroke-width=".355" points="533.1571,-60.2364 535.1288,-49.8266 527.0958,-56.7347 533.1571,-60.2364"/>
</g>
<!-- &#45;15 -->
<g id="node15" class="node">
<title>&#45;15</title>
<polygon fill="#d3d3d3" stroke="#000000" points="381.7456,-125.8493 353.7515,-125.8493 353.7515,-108.8493 381.7456,-108.8493 381.7456,-125.8493"/>
<text text-anchor="middle" x="367.7485" y="-114.6493" font-family="Times,serif" font-size="9.00" fill="#000000">&#45;15</text>
</g>
<!-- &#45;15&#45;&gt;A XOR B -->
<g id="edge43" class="edge">
<title>&#45;15&#45;&gt;A XOR B</title>
<path fill="none" stroke="#ff0000" stroke-width=".2286" d="M373.8485,-108.6889C379.6441,-100.4608 388.7781,-87.493 397.7186,-74.7998"/>
<polygon fill="#ff0000" stroke="#ff0000" stroke-width=".2286" points="400.6318,-76.7418 403.5289,-66.5508 394.9089,-72.7109 400.6318,-76.7418"/>
</g>
<!-- &#45;15&#45;&gt;1 -->
<g id="edge44" class="edge">
<title>&#45;15&#45;&gt;1</title>
<path fill="none" stroke="#ff0000" stroke-width=".4838" d="M381.9445,-111.6815C408.2645,-101.097 462.6174,-78.8532 469.7485,-72.8493 474.5732,-68.7873 478.7987,-63.5133 482.3043,-58.2457"/>
<polygon fill="#ff0000" stroke="#ff0000" stroke-width=".4838" points="485.3482,-59.9755 487.503,-49.6021 479.3496,-56.3676 485.3482,-59.9755"/>
</g>
<!-- &#45;15&#45;&gt;2 -->
<g id="edge45" class="edge">
<title>&#45;15&#45;&gt;2</title>
<path fill="none" stroke="#ff0000" stroke-width=".2062" d="M381.7991,-111.965C384.7416,-110.8915 387.8354,-109.8022 390.7485,-108.8493 446.103,-90.7417 469.7999,-107.3142 516.7485,-72.8493 521.8326,-69.1171 526.1487,-63.9583 529.6586,-58.6961"/>
<polygon fill="#ff0000" stroke="#ff0000" stroke-width=".2062" points="532.7355,-60.3685 534.7973,-49.9762 526.7048,-56.8145 532.7355,-60.3685"/>
</g>
<!-- &#45;16 -->
<g id="node16" class="node">
<title>&#45;16</title>
<polygon fill="#d3d3d3" stroke="#000000" points="427.7456,-125.8493 399.7515,-125.8493 399.7515,-108.8493 427.7456,-108.8493 427.7456,-125.8493"/>
<text text-anchor="middle" x="413.7485" y="-114.6493" font-family="Times,serif" font-size="9.00" fill="#000000">&#45;16</text>
</g>
<!-- &#45;16&#45;&gt;A XOR B -->
<g id="edge46" class="edge">
<title>&#45;16&#45;&gt;A XOR B</title>
<path fill="none" stroke="#00ff00" stroke-width=".2431" d="M414.9257,-108.6889C415.807,-102.2058 417.0882,-92.7802 418.436,-82.8649"/>
<polygon fill="#00ff00" stroke="#00ff00" stroke-width=".2431" points="421.9147,-83.2575 419.7936,-72.8772 414.9785,-82.3146 421.9147,-83.2575"/>
</g>
<!-- &#45;16&#45;&gt;1 -->
<g id="edge47" class="edge">
<title>&#45;16&#45;&gt;1</title>
<path fill="none" stroke="#ff0000" stroke-width=".108" d="M426.7218,-108.8265C438.7378,-100.5403 456.6723,-87.1424 469.7485,-72.8493 473.838,-68.3793 477.7153,-63.1459 481.1136,-58.0629"/>
<polygon fill="#ff0000" stroke="#ff0000" stroke-width=".108" points="484.2829,-59.5986 486.6559,-49.273 478.3616,-55.8651 484.2829,-59.5986"/>
</g>
<!-- &#45;16&#45;&gt;2 -->
<g id="edge48" class="edge">
<title>&#45;16&#45;&gt;2</title>
<path fill="none" stroke="#00ff00" stroke-width=".2412" d="M428.0837,-111.6882C454.6619,-101.115 509.5478,-78.8898 516.7485,-72.8493 521.5804,-68.7959 525.8085,-63.5249 529.3142,-58.2575"/>
<polygon fill="#00ff00" stroke="#00ff00" stroke-width=".2412" points="532.3589,-59.9858 534.5112,-49.6118 526.3594,-56.3794 532.3589,-59.9858"/>
</g>
<!-- &#45;17 -->
<g id="node17" class="node">
<title>&#45;17</title>
<polygon fill="#d3d3d3" stroke="#000000" points="473.7456,-125.8493 445.7515,-125.8493 445.7515,-108.8493 473.7456,-108.8493 473.7456,-125.8493"/>
<text text-anchor="middle" x="459.7485" y="-114.6493" font-family="Times,serif" font-size="9.00" fill="#000000">&#45;17</text>
</g>
<!-- &#45;17&#45;&gt;A XOR B -->
<g id="edge49" class="edge">
<title>&#45;17&#45;&gt;A XOR B</title>
<path fill="none" stroke="#00ff00" stroke-width=".1906" d="M456.0029,-108.6889C452.8617,-101.426 448.1233,-90.4702 443.2792,-79.27"/>
<polygon fill="#00ff00" stroke="#00ff00" stroke-width=".1906" points="446.4002,-77.669 439.2181,-69.8801 439.9753,-80.4478 446.4002,-77.669"/>
</g>
<!-- &#45;17&#45;&gt;1 -->
<g id="edge50" class="edge">
<title>&#45;17&#45;&gt;1</title>
<path fill="none" stroke="#ff0000" stroke-width=".2667" d="M463.3871,-108.6889C468.2957,-97.0059 477.2191,-75.767 484.1264,-59.3267"/>
<polygon fill="#ff0000" stroke="#ff0000" stroke-width=".2667" points="487.4659,-60.4138 488.1127,-49.8388 481.0124,-57.7024 487.4659,-60.4138"/>
</g>
<!-- &#45;17&#45;&gt;2 -->
<g id="edge51" class="edge">
<title>&#45;17&#45;&gt;2</title>
<path fill="none" stroke="#ff0000" stroke-width=".3282" d="M473.4399,-108.5522C485.6732,-100.2752 503.6369,-87.0578 516.7485,-72.8493 520.8572,-68.3969 524.7416,-63.1702 528.1408,-58.0879"/>
<polygon fill="#ff0000" stroke="#ff0000" stroke-width=".3282" points="531.3115,-59.6211 533.6789,-49.2941 525.3882,-55.8908 531.3115,-59.6211"/>
</g>
<!-- &#45;18 -->
<g id="node18" class="node">
<title>&#45;18</title>
<polygon fill="#d3d3d3" stroke="#000000" points="519.7456,-125.8493 491.7515,-125.8493 491.7515,-108.8493 519.7456,-108.8493 519.7456,-125.8493"/>
<text text-anchor="middle" x="505.7485" y="-114.6493" font-family="Times,serif" font-size="9.00" fill="#000000">&#45;18</text>
</g>
<!-- &#45;18&#45;&gt;A XOR B -->
<g id="edge52" class="edge">
<title>&#45;18&#45;&gt;A XOR B</title>
<path fill="none" stroke="#00ff00" stroke-width=".1103" d="M497.0801,-108.6889C487.6965,-99.314 472.1542,-83.7862 457.8768,-69.5221"/>
<polygon fill="#00ff00" stroke="#00ff00" stroke-width=".1103" points="460.1134,-66.8092 450.5653,-62.2174 455.166,-71.7612 460.1134,-66.8092"/>
</g>
<!-- &#45;18&#45;&gt;1 -->
<g id="edge53" class="edge">
<title>&#45;18&#45;&gt;1</title>
<path fill="none" stroke="#ff0000" stroke-width=".2371" d="M504.4643,-108.6889C502.7879,-97.3836 499.7847,-77.1306 497.3833,-60.9362"/>
<polygon fill="#ff0000" stroke="#ff0000" stroke-width=".2371" points="500.8411,-60.3935 495.9121,-51.015 493.9169,-61.4203 500.8411,-60.3935"/>
</g>
<!-- &#45;18&#45;&gt;2 -->
<g id="edge54" class="edge">
<title>&#45;18&#45;&gt;2</title>
<path fill="none" stroke="#ff0000" stroke-width=".3104" d="M509.4941,-108.6889C514.5471,-97.0059 523.7329,-75.767 530.8434,-59.3267"/>
<polygon fill="#ff0000" stroke="#ff0000" stroke-width=".3104" points="534.1896,-60.4065 534.9469,-49.8388 527.7648,-57.6277 534.1896,-60.4065"/>
</g>
<!-- &#45;19 -->
<g id="node19" class="node">
<title>&#45;19</title>
<polygon fill="#d3d3d3" stroke="#000000" points="565.7456,-125.8493 537.7515,-125.8493 537.7515,-108.8493 565.7456,-108.8493 565.7456,-125.8493"/>
<text text-anchor="middle" x="551.7485" y="-114.6493" font-family="Times,serif" font-size="9.00" fill="#000000">&#45;19</text>
</g>
<!-- &#45;19&#45;&gt;A XOR B -->
<g id="edge55" class="edge">
<title>&#45;19&#45;&gt;A XOR B</title>
<path fill="none" stroke="#ff0000" stroke-width=".2372" d="M537.5759,-110.4744C521.0718,-102.2635 493.2059,-87.7578 470.7485,-72.8493 467.4997,-70.6925 464.1939,-68.3662 460.9208,-65.9695"/>
<polygon fill="#ff0000" stroke="#ff0000" stroke-width=".2372" points="462.9946,-63.1497 452.9032,-59.9227 458.7796,-68.7385 462.9946,-63.1497"/>
</g>
<!-- &#45;19&#45;&gt;1 -->
<g id="edge56" class="edge">
<title>&#45;19&#45;&gt;1</title>
<path fill="none" stroke="#00ff00" stroke-width=".2016" d="M544.7906,-108.6199C537.7852,-99.7445 526.7557,-85.5325 517.7485,-72.8493 514.2406,-67.9097 510.5814,-62.5003 507.208,-57.3971"/>
<polygon fill="#00ff00" stroke="#00ff00" stroke-width=".2016" points="509.9351,-55.1715 501.5391,-48.7095 504.0728,-58.9969 509.9351,-55.1715"/>
</g>
<!-- &#45;19&#45;&gt;2 -->
<g id="edge57" class="edge">
<title>&#45;19&#45;&gt;2</title>
<path fill="none" stroke="#ff0000" stroke-width=".3525" d="M550.5713,-108.6889C549.0346,-97.3836 546.2817,-77.1306 544.0804,-60.9362"/>
<polygon fill="#ff0000" stroke="#ff0000" stroke-width=".3525" points="547.5469,-60.4525 542.7318,-51.015 540.6107,-61.3954 547.5469,-60.4525"/>
</g>
<!-- &#45;20 -->
<g id="node20" class="node">
<title>&#45;20</title>
<polygon fill="#d3d3d3" stroke="#000000" points="611.7456,-125.8493 583.7515,-125.8493 583.7515,-108.8493 611.7456,-108.8493 611.7456,-125.8493"/>
<text text-anchor="middle" x="597.7485" y="-114.6493" font-family="Times,serif" font-size="9.00" fill="#000000">&#45;20</text>
</g>
<!-- &#45;20&#45;&gt;A XOR B -->
<g id="edge58" class="edge">
<title>&#45;20&#45;&gt;A XOR B</title>
<path fill="none" stroke="#00ff00" stroke-width=".2732" d="M583.6557,-112.0885C580.7163,-111.006 577.6344,-109.8819 574.7485,-108.8493 528.6948,-92.3705 513.6387,-96.3636 470.7485,-72.8493 467.3291,-70.9746 463.9038,-68.8461 460.5507,-66.5816"/>
<polygon fill="#00ff00" stroke="#00ff00" stroke-width=".2732" points="462.5746,-63.726 452.4093,-60.7396 458.4935,-69.4133 462.5746,-63.726"/>
</g>
<!-- &#45;20&#45;&gt;1 -->
<g id="edge59" class="edge">
<title>&#45;20&#45;&gt;1</title>
<path fill="none" stroke="#ff0000" stroke-width=".1602" d="M583.736,-112.0025C566.6738,-104.9785 537.6723,-91.3326 517.7485,-72.8493 513.307,-68.7289 509.2977,-63.6266 505.8842,-58.5586"/>
<polygon fill="#ff0000" stroke="#ff0000" stroke-width=".1602" points="508.6457,-56.3684 500.4187,-49.6925 502.6869,-60.0417 508.6457,-56.3684"/>
</g>
<!-- &#45;20&#45;&gt;2 -->
<g id="edge60" class="edge">
<title>&#45;20&#45;&gt;2</title>
<path fill="none" stroke="#ff0000" stroke-width=".3959" d="M591.6485,-108.6889C583.0219,-96.4414 566.9984,-73.6923 555.2262,-56.979"/>
<polygon fill="#ff0000" stroke="#ff0000" stroke-width=".3959" points="557.8174,-54.5798 549.1974,-48.4198 552.0945,-58.6108 557.8174,-54.5798"/>
</g>
<!-- &#45;21 -->
<g id="node21" class="node">
<title>&#45;21</title>
<polygon fill="#d3d3d3" stroke="#000000" points="657.7456,-125.8493 629.7515,-125.8493 629.7515,-108.8493 657.7456,-108.8493 657.7456,-125.8493"/>
<text text-anchor="middle" x="643.7485" y="-114.6493" font-family="Times,serif" font-size="9.00" fill="#000000">&#45;21</text>
</g>
<!-- &#45;21&#45;&gt;A XOR B -->
<g id="edge61" class="edge">
<title>&#45;21&#45;&gt;A XOR B</title>
<path fill="none" stroke="#ff0000" stroke-width=".3213" d="M629.7285,-111.8682C626.7838,-110.8017 623.6814,-109.7397 620.7485,-108.8493 555.1458,-88.9312 532.4039,-102.8336 470.7485,-72.8493 467.1916,-71.1194 463.6554,-69.0764 460.2155,-66.855"/>
<polygon fill="#ff0000" stroke="#ff0000" stroke-width=".3213" points="462.1066,-63.9066 451.9063,-61.0424 458.0942,-69.6425 462.1066,-63.9066"/>
</g>
<!-- &#45;21&#45;&gt;1 -->
<g id="edge62" class="edge">
<title>&#45;21&#45;&gt;1</title>
<path fill="none" stroke="#ff0000" stroke-width=".1736" d="M629.6533,-112.0952C626.7141,-111.0122 623.6329,-109.8862 620.7485,-108.8493 575.1146,-92.4435 555.9919,-102.6662 517.7485,-72.8493 512.7747,-68.9714 508.4971,-63.7617 504.9891,-58.4971"/>
<polygon fill="#ff0000" stroke="#ff0000" stroke-width=".1736" points="507.9437,-56.6179 499.8249,-49.8109 501.9268,-60.1952 507.9437,-56.6179"/>
</g>
<!-- &#45;21&#45;&gt;2 -->
<g id="edge63" class="edge">
<title>&#45;21&#45;&gt;2</title>
<path fill="none" stroke="#00ff00" stroke-width=".5059" d="M632.7257,-108.6889C615.4842,-95.1427 581.8915,-68.7497 560.427,-51.8855"/>
<polygon fill="#00ff00" stroke="#00ff00" stroke-width=".5059" points="562.3458,-48.942 552.3201,-45.5161 558.0211,-54.4464 562.3458,-48.942"/>
</g>
<!-- &#45;22 -->
<g id="node22" class="node">
<title>&#45;22</title>
<polygon fill="#d3d3d3" stroke="#000000" points="703.7456,-125.8493 675.7515,-125.8493 675.7515,-108.8493 703.7456,-108.8493 703.7456,-125.8493"/>
<text text-anchor="middle" x="689.7485" y="-114.6493" font-family="Times,serif" font-size="9.00" fill="#000000">&#45;22</text>
</g>
<!-- &#45;22&#45;&gt;A XOR B -->
<g id="edge64" class="edge">
<title>&#45;22&#45;&gt;A XOR B</title>
<path fill="none" stroke="#00ff00" stroke-width=".1065" d="M675.2714,-111.5693C672.4715,-110.5741 669.5401,-109.6153 666.7485,-108.8493 581.3378,-85.4112 551.4122,-109.4241 470.7485,-72.8493 467.0955,-71.1929 463.478,-69.1844 459.9715,-66.9712"/>
<polygon fill="#00ff00" stroke="#00ff00" stroke-width=".1065" points="461.7427,-63.9407 451.5269,-61.1322 457.7616,-69.6984 461.7427,-63.9407"/>
</g>
<!-- &#45;22&#45;&gt;1 -->
<g id="edge65" class="edge">
<title>&#45;22&#45;&gt;1</title>
<path fill="none" stroke="#00ff00" stroke-width=".1271" d="M675.7275,-111.8716C672.7829,-110.8049 669.6807,-109.742 666.7485,-108.8493 601.5744,-89.0071 573.4864,-112.0242 517.7485,-72.8493 512.5886,-69.2227 508.246,-64.1008 504.7349,-58.8403"/>
<polygon fill="#00ff00" stroke="#00ff00" stroke-width=".1271" points="507.6876,-56.9562 499.6137,-50.096 501.6473,-60.4939 507.6876,-56.9562"/>
</g>
<!-- &#45;22&#45;&gt;2 -->
<g id="edge66" class="edge">
<title>&#45;22&#45;&gt;2</title>
<path fill="none" stroke="#ff0000" stroke-width=".1702" d="M675.731,-109.7361C649.7138,-95.6057 593.783,-65.2286 562.7039,-48.349"/>
<polygon fill="#ff0000" stroke="#ff0000" stroke-width=".1702" points="564.014,-45.0776 553.5559,-43.3806 560.673,-51.229 564.014,-45.0776"/>
</g>
</g>
</svg>
