<?xml version="1.0" encoding="UTF-8" standalone="no"?>
<!DOCTYPE svg PUBLIC "-//W3C//DTD SVG 1.1//EN"
 "http://www.w3.org/Graphics/SVG/1.1/DTD/svg11.dtd">
<!-- Generated by graphviz version 2.40.1 (20161225.0304)
 -->
<!-- Title: %3 Pages: 1 -->
<svg width="958pt" height="104pt"
 viewBox="0.00 0.00 957.75 104.12" xmlns="http://www.w3.org/2000/svg" xmlns:xlink="http://www.w3.org/1999/xlink">
<g id="graph0" class="graph" transform="scale(1 1) rotate(0) translate(4 100.1176)">
<title>%3</title>
<polygon fill="#ffffff" stroke="transparent" points="-4,4 -4,-100.1176 953.7471,-100.1176 953.7471,4 -4,4"/>
<!-- &#45;1 -->
<g id="node1" class="node">
<title>&#45;1</title>
<polygon fill="#d3d3d3" stroke="#000000" points="23.751,-96.1176 -.2539,-96.1176 -.2539,-79.1176 23.751,-79.1176 23.751,-96.1176"/>
<text text-anchor="middle" x="11.7485" y="-84.9176" font-family="Times,serif" font-size="9.00" fill="#000000">&#45;1</text>
</g>
<!-- Acc -->
<g id="node23" class="node">
<title>Acc</title>
<ellipse fill="#add8e6" stroke="#000000" cx="452.7485" cy="-21.5588" rx="21.6178" ry="21.6178"/>
<text text-anchor="middle" x="452.7485" y="-18.8588" font-family="Times,serif" font-size="9.00" fill="#000000">Acc</text>
</g>
<!-- &#45;1&#45;&gt;Acc -->
<g id="edge1" class="edge">
<title>&#45;1&#45;&gt;Acc</title>
<path fill="none" stroke="#00ff00" stroke-width=".1183" d="M23.8337,-81.8749C26.402,-80.8273 29.1297,-79.8392 31.7485,-79.1176 173.4691,-40.0671 349.6459,-26.9352 420.7679,-23.0327"/>
<polygon fill="#00ff00" stroke="#00ff00" stroke-width=".1183" points="421.0688,-26.5219 430.8716,-22.5025 420.7019,-19.5315 421.0688,-26.5219"/>
</g>
<!-- &#45;2 -->
<g id="node2" class="node">
<title>&#45;2</title>
<polygon fill="#d3d3d3" stroke="#000000" points="64.751,-96.1176 40.7461,-96.1176 40.7461,-79.1176 64.751,-79.1176 64.751,-96.1176"/>
<text text-anchor="middle" x="52.7485" y="-84.9176" font-family="Times,serif" font-size="9.00" fill="#000000">&#45;2</text>
</g>
<!-- &#45;2&#45;&gt;Acc -->
<g id="edge2" class="edge">
<title>&#45;2&#45;&gt;Acc</title>
<path fill="none" stroke="#00ff00" stroke-width=".3112" d="M64.8419,-81.9042C67.4096,-80.8545 70.135,-79.8581 72.7485,-79.1176 198.6298,-43.451 354.6127,-28.6534 420.7319,-23.6806"/>
<polygon fill="#00ff00" stroke="#00ff00" stroke-width=".3112" points="421.1986,-27.1559 430.9182,-22.9395 420.6906,-20.1744 421.1986,-27.1559"/>
</g>
<!-- &#45;3 -->
<g id="node3" class="node">
<title>&#45;3</title>
<polygon fill="#d3d3d3" stroke="#000000" points="105.751,-96.1176 81.7461,-96.1176 81.7461,-79.1176 105.751,-79.1176 105.751,-96.1176"/>
<text text-anchor="middle" x="93.7485" y="-84.9176" font-family="Times,serif" font-size="9.00" fill="#000000">&#45;3</text>
</g>
<!-- &#45;3&#45;&gt;Acc -->
<g id="edge3" class="edge">
<title>&#45;3&#45;&gt;Acc</title>
<path fill="none" stroke="#00ff00" stroke-width=".1663" d="M105.8523,-81.9403C108.4192,-80.888 111.1417,-79.8814 113.7485,-79.1176 223.9965,-46.8143 360.062,-30.5511 420.8265,-24.4671"/>
<polygon fill="#00ff00" stroke="#00ff00" stroke-width=".1663" points="421.3229,-27.9354 430.9354,-23.4801 420.6425,-20.9685 421.3229,-27.9354"/>
</g>
<!-- &#45;4 -->
<g id="node4" class="node">
<title>&#45;4</title>
<polygon fill="#d3d3d3" stroke="#000000" points="146.751,-96.1176 122.7461,-96.1176 122.7461,-79.1176 146.751,-79.1176 146.751,-96.1176"/>
<text text-anchor="middle" x="134.7485" y="-84.9176" font-family="Times,serif" font-size="9.00" fill="#000000">&#45;4</text>
</g>
<!-- &#45;4&#45;&gt;Acc -->
<g id="edge4" class="edge">
<title>&#45;4&#45;&gt;Acc</title>
<path fill="none" stroke="#00ff00" stroke-width=".242" d="M146.8659,-81.9859C149.4319,-80.9303 152.1505,-79.9109 154.7485,-79.1176 249.4766,-50.1947 365.7559,-32.7137 420.8678,-25.4653"/>
<polygon fill="#00ff00" stroke="#00ff00" stroke-width=".242" points="421.5802,-28.9025 431.0501,-24.1517 420.6845,-21.96 421.5802,-28.9025"/>
</g>
<!-- &#45;5 -->
<g id="node5" class="node">
<title>&#45;5</title>
<polygon fill="#d3d3d3" stroke="#000000" points="187.751,-96.1176 163.7461,-96.1176 163.7461,-79.1176 187.751,-79.1176 187.751,-96.1176"/>
<text text-anchor="middle" x="175.7485" y="-84.9176" font-family="Times,serif" font-size="9.00" fill="#000000">&#45;5</text>
</g>
<!-- &#45;5&#45;&gt;Acc -->
<g id="edge5" class="edge">
<title>&#45;5&#45;&gt;Acc</title>
<path fill="none" stroke="#ff0000" stroke-width=".1361" d="M187.8845,-82.0452C190.4491,-80.9853 193.1625,-79.9491 195.7485,-79.1176 275.4351,-53.4952 372.577,-35.084 421.4594,-26.6732"/>
<polygon fill="#ff0000" stroke="#ff0000" stroke-width=".1361" points="422.1405,-30.1077 431.4142,-24.9844 420.9696,-23.2063 422.1405,-30.1077"/>
</g>
<!-- &#45;6 -->
<g id="node6" class="node">
<title>&#45;6</title>
<polygon fill="#d3d3d3" stroke="#000000" points="228.751,-96.1176 204.7461,-96.1176 204.7461,-79.1176 228.751,-79.1176 228.751,-96.1176"/>
<text text-anchor="middle" x="216.7485" y="-84.9176" font-family="Times,serif" font-size="9.00" fill="#000000">&#45;6</text>
</g>
<!-- &#45;6&#45;&gt;Acc -->
<g id="edge6" class="edge">
<title>&#45;6&#45;&gt;Acc</title>
<path fill="none" stroke="#ff0000" stroke-width=".1855" d="M228.9111,-82.1253C231.4738,-81.0596 234.1797,-80.0008 236.7485,-79.1176 301.3694,-56.9005 379.2816,-38.0158 421.6308,-28.3898"/>
<polygon fill="#ff0000" stroke="#ff0000" stroke-width=".1855" points="422.6142,-31.7561 431.6016,-26.1456 421.0771,-24.9269 422.6142,-31.7561"/>
</g>
<!-- &#45;7 -->
<g id="node7" class="node">
<title>&#45;7</title>
<polygon fill="#d3d3d3" stroke="#000000" points="269.751,-96.1176 245.7461,-96.1176 245.7461,-79.1176 269.751,-79.1176 269.751,-96.1176"/>
<text text-anchor="middle" x="257.7485" y="-84.9176" font-family="Times,serif" font-size="9.00" fill="#000000">&#45;7</text>
</g>
<!-- &#45;7&#45;&gt;Acc -->
<g id="edge7" class="edge">
<title>&#45;7&#45;&gt;Acc</title>
<path fill="none" stroke="#00ff00" stroke-width=".1163" d="M269.5267,-82.4176C272.2119,-81.2865 275.0648,-80.1272 277.7485,-79.1176 327.8802,-60.2584 387.3125,-41.4417 422.4233,-30.6825"/>
<polygon fill="#00ff00" stroke="#00ff00" stroke-width=".1163" points="423.5327,-34.0034 432.0776,-27.7396 421.4916,-27.3076 423.5327,-34.0034"/>
</g>
<!-- &#45;8 -->
<g id="node8" class="node">
<title>&#45;8</title>
<polygon fill="#d3d3d3" stroke="#000000" points="310.751,-96.1176 286.7461,-96.1176 286.7461,-79.1176 310.751,-79.1176 310.751,-96.1176"/>
<text text-anchor="middle" x="298.7485" y="-84.9176" font-family="Times,serif" font-size="9.00" fill="#000000">&#45;8</text>
</g>
<!-- &#45;8&#45;&gt;Acc -->
<g id="edge8" class="edge">
<title>&#45;8&#45;&gt;Acc</title>
<path fill="none" stroke="#00ff00" stroke-width=".5536" d="M310.8327,-82.4341C334.9045,-72.1084 389.4478,-48.7119 423.4702,-34.1179"/>
<polygon fill="#00ff00" stroke="#00ff00" stroke-width=".5536" points="425.0862,-37.2331 432.8966,-30.0744 422.3266,-30.8 425.0862,-37.2331"/>
</g>
<!-- &#45;9 -->
<g id="node9" class="node">
<title>&#45;9</title>
<polygon fill="#d3d3d3" stroke="#000000" points="351.751,-96.1176 327.7461,-96.1176 327.7461,-79.1176 351.751,-79.1176 351.751,-96.1176"/>
<text text-anchor="middle" x="339.7485" y="-84.9176" font-family="Times,serif" font-size="9.00" fill="#000000">&#45;9</text>
</g>
<!-- &#45;9&#45;&gt;Acc -->
<g id="edge9" class="edge">
<title>&#45;9&#45;&gt;Acc</title>
<path fill="none" stroke="#00ff00" stroke-width=".1648" d="M351.8415,-80.5482C369.2326,-70.3815 401.7876,-51.3501 425.2235,-37.6497"/>
<polygon fill="#00ff00" stroke="#00ff00" stroke-width=".1648" points="427.1509,-40.5772 434.0176,-32.5088 423.6181,-34.5341 427.1509,-40.5772"/>
</g>
<!-- &#45;10 -->
<g id="node10" class="node">
<title>&#45;10</title>
<polygon fill="#d3d3d3" stroke="#000000" points="397.7456,-96.1176 369.7515,-96.1176 369.7515,-79.1176 397.7456,-79.1176 397.7456,-96.1176"/>
<text text-anchor="middle" x="383.7485" y="-84.9176" font-family="Times,serif" font-size="9.00" fill="#000000">&#45;10</text>
</g>
<!-- &#45;10&#45;&gt;Acc -->
<g id="edge10" class="edge">
<title>&#45;10&#45;&gt;Acc</title>
<path fill="none" stroke="#00ff00" stroke-width=".133" d="M392.7691,-78.9816C402.0865,-70.0614 417.0058,-55.778 429.6334,-43.6887"/>
<polygon fill="#00ff00" stroke="#00ff00" stroke-width=".133" points="432.3261,-45.9561 437.1291,-36.5125 427.4853,-40.8998 432.3261,-45.9561"/>
</g>
<!-- &#45;11 -->
<g id="node11" class="node">
<title>&#45;11</title>
<polygon fill="#d3d3d3" stroke="#000000" points="443.418,-96.1176 416.0791,-96.1176 416.0791,-79.1176 443.418,-79.1176 443.418,-96.1176"/>
<text text-anchor="middle" x="429.7485" y="-84.9176" font-family="Times,serif" font-size="9.00" fill="#000000">&#45;11</text>
</g>
<!-- &#45;11&#45;&gt;Acc -->
<g id="edge11" class="edge">
<title>&#45;11&#45;&gt;Acc</title>
<path fill="none" stroke="#00ff00" stroke-width=".3338" d="M432.7554,-78.9816C435.1846,-72.0045 438.7562,-61.7464 442.2112,-51.8234"/>
<polygon fill="#00ff00" stroke="#00ff00" stroke-width=".3338" points="445.5977,-52.741 445.5806,-42.1461 438.987,-50.4392 445.5977,-52.741"/>
</g>
<!-- &#45;12 -->
<g id="node12" class="node">
<title>&#45;12</title>
<polygon fill="#d3d3d3" stroke="#000000" points="489.7456,-96.1176 461.7515,-96.1176 461.7515,-79.1176 489.7456,-79.1176 489.7456,-96.1176"/>
<text text-anchor="middle" x="475.7485" y="-84.9176" font-family="Times,serif" font-size="9.00" fill="#000000">&#45;12</text>
</g>
<!-- &#45;12&#45;&gt;Acc -->
<g id="edge12" class="edge">
<title>&#45;12&#45;&gt;Acc</title>
<path fill="none" stroke="#ff0000" stroke-width=".1643" d="M472.7417,-78.9816C470.3125,-72.0045 466.7408,-61.7464 463.2859,-51.8234"/>
<polygon fill="#ff0000" stroke="#ff0000" stroke-width=".1643" points="466.5101,-50.4392 459.9165,-42.1461 459.8993,-52.741 466.5101,-50.4392"/>
</g>
<!-- &#45;13 -->
<g id="node13" class="node">
<title>&#45;13</title>
<polygon fill="#d3d3d3" stroke="#000000" points="535.7456,-96.1176 507.7515,-96.1176 507.7515,-79.1176 535.7456,-79.1176 535.7456,-96.1176"/>
<text text-anchor="middle" x="521.7485" y="-84.9176" font-family="Times,serif" font-size="9.00" fill="#000000">&#45;13</text>
</g>
<!-- &#45;13&#45;&gt;Acc -->
<g id="edge13" class="edge">
<title>&#45;13&#45;&gt;Acc</title>
<path fill="none" stroke="#ff0000" stroke-width=".5335" d="M512.728,-78.9816C503.4106,-70.0614 488.4912,-55.778 475.8637,-43.6887"/>
<polygon fill="#ff0000" stroke="#ff0000" stroke-width=".5335" points="478.0118,-40.8998 468.368,-36.5125 473.1709,-45.9561 478.0118,-40.8998"/>
</g>
<!-- &#45;14 -->
<g id="node14" class="node">
<title>&#45;14</title>
<polygon fill="#d3d3d3" stroke="#000000" points="581.7456,-96.1176 553.7515,-96.1176 553.7515,-79.1176 581.7456,-79.1176 581.7456,-96.1176"/>
<text text-anchor="middle" x="567.7485" y="-84.9176" font-family="Times,serif" font-size="9.00" fill="#000000">&#45;14</text>
</g>
<!-- &#45;14&#45;&gt;Acc -->
<g id="edge14" class="edge">
<title>&#45;14&#45;&gt;Acc</title>
<path fill="none" stroke="#00ff00" stroke-width=".2378" d="M553.6473,-79.5175C535.433,-69.0548 503.3283,-50.613 480.2191,-37.3386"/>
<polygon fill="#00ff00" stroke="#00ff00" stroke-width=".2378" points="481.96,-34.3023 471.5454,-32.3562 478.4733,-40.3721 481.96,-34.3023"/>
</g>
<!-- &#45;15 -->
<g id="node15" class="node">
<title>&#45;15</title>
<polygon fill="#d3d3d3" stroke="#000000" points="627.7456,-96.1176 599.7515,-96.1176 599.7515,-79.1176 627.7456,-79.1176 627.7456,-96.1176"/>
<text text-anchor="middle" x="613.7485" y="-84.9176" font-family="Times,serif" font-size="9.00" fill="#000000">&#45;15</text>
</g>
<!-- &#45;15&#45;&gt;Acc -->
<g id="edge15" class="edge">
<title>&#45;15&#45;&gt;Acc</title>
<path fill="none" stroke="#ff0000" stroke-width=".2048" d="M599.7425,-81.8709C573.7005,-71.1858 517.3128,-48.0497 482.4404,-33.7415"/>
<polygon fill="#ff0000" stroke="#ff0000" stroke-width=".2048" points="483.3724,-30.3408 472.7922,-29.7828 480.7152,-36.8168 483.3724,-30.3408"/>
</g>
<!-- &#45;16 -->
<g id="node16" class="node">
<title>&#45;16</title>
<polygon fill="#d3d3d3" stroke="#000000" points="673.7456,-96.1176 645.7515,-96.1176 645.7515,-79.1176 673.7456,-79.1176 673.7456,-96.1176"/>
<text text-anchor="middle" x="659.7485" y="-84.9176" font-family="Times,serif" font-size="9.00" fill="#000000">&#45;16</text>
</g>
<!-- &#45;16&#45;&gt;Acc -->
<g id="edge16" class="edge">
<title>&#45;16&#45;&gt;Acc</title>
<path fill="none" stroke="#ff0000" stroke-width=".3152" d="M645.6793,-82.2894C642.7382,-81.2118 639.6496,-80.1067 636.7485,-79.1176 583.032,-60.8032 519.7532,-41.4988 483.144,-30.5503"/>
<polygon fill="#ff0000" stroke="#ff0000" stroke-width=".3152" points="484.1389,-27.1947 473.5557,-27.6916 482.1388,-33.903 484.1389,-27.1947"/>
</g>
<!-- &#45;17 -->
<g id="node17" class="node">
<title>&#45;17</title>
<polygon fill="#d3d3d3" stroke="#000000" points="719.7456,-96.1176 691.7515,-96.1176 691.7515,-79.1176 719.7456,-79.1176 719.7456,-96.1176"/>
<text text-anchor="middle" x="705.7485" y="-84.9176" font-family="Times,serif" font-size="9.00" fill="#000000">&#45;17</text>
</g>
<!-- &#45;17&#45;&gt;Acc -->
<g id="edge17" class="edge">
<title>&#45;17&#45;&gt;Acc</title>
<path fill="none" stroke="#ff0000" stroke-width=".1964" d="M691.7218,-82.1585C688.7776,-81.0904 685.677,-80.0223 682.7485,-79.1176 612.4784,-57.4107 528.2571,-37.9655 483.7903,-28.1992"/>
<polygon fill="#ff0000" stroke="#ff0000" stroke-width=".1964" points="484.406,-24.7513 473.8899,-26.0407 482.9149,-31.5906 484.406,-24.7513"/>
</g>
<!-- &#45;18 -->
<g id="node18" class="node">
<title>&#45;18</title>
<polygon fill="#d3d3d3" stroke="#000000" points="765.7456,-96.1176 737.7515,-96.1176 737.7515,-79.1176 765.7456,-79.1176 765.7456,-96.1176"/>
<text text-anchor="middle" x="751.7485" y="-84.9176" font-family="Times,serif" font-size="9.00" fill="#000000">&#45;18</text>
</g>
<!-- &#45;18&#45;&gt;Acc -->
<g id="edge18" class="edge">
<title>&#45;18&#45;&gt;Acc</title>
<path fill="none" stroke="#00ff00" stroke-width=".4662" d="M737.7487,-82.0683C734.8025,-81.0068 731.6944,-79.9641 728.7485,-79.1176 641.5673,-54.0673 535.9745,-35.1222 484.312,-26.5704"/>
<polygon fill="#00ff00" stroke="#00ff00" stroke-width=".4662" points="484.5664,-23.0655 474.1324,-24.9048 483.436,-29.9737 484.5664,-23.0655"/>
</g>
<!-- &#45;19 -->
<g id="node19" class="node">
<title>&#45;19</title>
<polygon fill="#d3d3d3" stroke="#000000" points="811.7456,-96.1176 783.7515,-96.1176 783.7515,-79.1176 811.7456,-79.1176 811.7456,-96.1176"/>
<text text-anchor="middle" x="797.7485" y="-84.9176" font-family="Times,serif" font-size="9.00" fill="#000000">&#45;19</text>
</g>
<!-- &#45;19&#45;&gt;Acc -->
<g id="edge19" class="edge">
<title>&#45;19&#45;&gt;Acc</title>
<path fill="none" stroke="#00ff00" stroke-width=".1821" d="M783.2743,-81.8269C780.4741,-80.8327 777.5419,-79.877 774.7485,-79.1176 670.2808,-50.7174 542.8421,-32.6965 484.5742,-25.3455"/>
<polygon fill="#00ff00" stroke="#00ff00" stroke-width=".1821" points="484.8756,-21.8561 474.5204,-24.097 484.0129,-28.8027 484.8756,-21.8561"/>
</g>
<!-- &#45;20 -->
<g id="node20" class="node">
<title>&#45;20</title>
<polygon fill="#d3d3d3" stroke="#000000" points="857.7456,-96.1176 829.7515,-96.1176 829.7515,-79.1176 857.7456,-79.1176 857.7456,-96.1176"/>
<text text-anchor="middle" x="843.7485" y="-84.9176" font-family="Times,serif" font-size="9.00" fill="#000000">&#45;20</text>
</g>
<!-- &#45;20&#45;&gt;Acc -->
<g id="edge20" class="edge">
<title>&#45;20&#45;&gt;Acc</title>
<path fill="none" stroke="#00ff00" stroke-width=".2126" d="M829.2874,-81.7777C826.486,-80.7881 823.55,-79.8466 820.7485,-79.1176 698.8808,-47.4051 549.4801,-30.6332 484.951,-24.4219"/>
<polygon fill="#00ff00" stroke="#00ff00" stroke-width=".2126" points="484.9099,-20.9026 474.6257,-23.449 484.2533,-27.8717 484.9099,-20.9026"/>
</g>
<!-- &#45;21 -->
<g id="node21" class="node">
<title>&#45;21</title>
<polygon fill="#d3d3d3" stroke="#000000" points="903.7456,-96.1176 875.7515,-96.1176 875.7515,-79.1176 903.7456,-79.1176 903.7456,-96.1176"/>
<text text-anchor="middle" x="889.7485" y="-84.9176" font-family="Times,serif" font-size="9.00" fill="#000000">&#45;21</text>
</g>
<!-- &#45;21&#45;&gt;Acc -->
<g id="edge21" class="edge">
<title>&#45;21&#45;&gt;Acc</title>
<path fill="none" stroke="#00ff00" stroke-width=".1212" d="M875.2973,-81.7391C872.495,-80.7531 869.5561,-79.8228 866.7485,-79.1176 727.1232,-44.0491 555.2772,-28.7665 485.0004,-23.6639"/>
<polygon fill="#00ff00" stroke="#00ff00" stroke-width=".1212" points="484.8356,-20.1437 474.614,-22.9309 484.3428,-27.1263 484.8356,-20.1437"/>
</g>
<!-- &#45;22 -->
<g id="node22" class="node">
<title>&#45;22</title>
<polygon fill="#d3d3d3" stroke="#000000" points="949.7456,-96.1176 921.7515,-96.1176 921.7515,-79.1176 949.7456,-79.1176 949.7456,-96.1176"/>
<text text-anchor="middle" x="935.7485" y="-84.9176" font-family="Times,serif" font-size="9.00" fill="#000000">&#45;22</text>
</g>
<!-- &#45;22&#45;&gt;Acc -->
<g id="edge22" class="edge">
<title>&#45;22&#45;&gt;Acc</title>
<path fill="none" stroke="#00ff00" stroke-width=".1801" d="M921.3049,-81.708C918.5019,-80.7249 915.5609,-79.8036 912.7485,-79.1176 755.1253,-40.6717 560.5093,-27.0834 484.8974,-23.0439"/>
<polygon fill="#00ff00" stroke="#00ff00" stroke-width=".1801" points="484.7903,-19.5338 474.6236,-22.5153 484.4306,-26.5246 484.7903,-19.5338"/>
</g>
<!-- Acc&#45;&gt;Acc -->
<g id="edge23" class="edge">
<title>Acc&#45;&gt;Acc</title>
<path fill="none" stroke="#ff0000" stroke-width=".1626" d="M471.0599,-33.1604C482.0056,-35.7385 492.3074,-31.8713 492.3074,-21.5588 492.3074,-14.6301 487.657,-10.6109 481.2854,-9.5012"/>
<polygon fill="#ff0000" stroke="#ff0000" stroke-width=".1626" points="480.894,-6.0151 471.0599,-9.9573 481.206,-13.0082 480.894,-6.0151"/>
</g>
</g>
</svg>
